<svg width="253" height="116" viewBox="0 0 253 116" fill="none" xmlns="http://www.w3.org/2000/svg">
<mask id="mask0_446_7203" style="mask-type:alpha" maskUnits="userSpaceOnUse" x="0" y="0" width="253" height="116">
<rect width="253" height="116" fill="#019DA7"/>
</mask>
<g mask="url(#mask0_446_7203)">
<path d="M37.0364 45.5212V71.6802C37.0364 65.9082 43.7681 60.5802 55.1036 56.2512C55.1036 56.2512 56.5737 55.6962 57.154 55.4742C65.201 52.2922 69.8435 47.0011 69.8435 37.7141V25.5781C49.726 30.4251 37.0364 37.5291 37.0364 45.4841V45.5212Z" fill="white" fill-opacity="0.2"/>
<path d="M114.878 -2.50101C114.878 6.453 107.296 13.705 97.9333 13.705C88.5709 13.705 80.9881 6.453 80.9881 -2.50101C80.9881 -11.455 88.5709 -18.707 97.9333 -18.707C107.296 -18.707 114.878 -11.455 114.878 -2.50101Z" fill="white" fill-opacity="0.2"/>
<path d="M132.329 19.1465C123.392 19.1465 111.709 19.4795 103.545 20.3675C89.9661 21.8475 81.3387 31.0605 81.3387 44.4175V131.553C81.3387 136.807 88.7667 141.062 97.9744 141.062C107.182 141.062 114.571 136.807 114.571 131.553V51.0035C114.571 48.0435 117.047 45.9345 120.142 45.5645C124.166 45.4165 128.228 45.3055 132.368 45.3055C185.022 45.3055 227.694 57.1085 227.694 71.6866V45.5275C227.694 30.9495 185.022 19.1465 132.368 19.1465H132.329Z" fill="white" fill-opacity="0.2"/>
<path d="M187.111 67.1002V79.0142C187.111 85.4892 193.92 91.7793 203.94 89.0412C218.718 84.3792 227.655 78.3112 227.655 71.6512V45.4922C227.655 54.4092 211.6 62.2902 187.111 67.1002Z" fill="#5C54BD"/>
<path d="M175.964 48.6357C175.964 57.5897 168.381 64.8417 159.019 64.8417C149.657 64.8417 142.074 57.5897 142.074 48.6357C142.074 39.6817 149.657 32.4297 159.019 32.4297C168.381 32.4297 175.964 39.6817 175.964 48.6357Z" fill="#5C54BD"/>
<path d="M150.2 71.4274C150.2 71.4274 138.478 71.9084 132.326 71.9084C79.6724 71.9084 37 60.1054 37 45.5273V71.6864C37 86.2644 79.6724 98.0674 132.326 98.0674C133.796 98.0674 136.659 98.0674 136.659 98.0674C139.832 98.0674 142.385 100.509 142.385 103.543V191.752C142.385 197.006 149.813 201.261 158.982 201.261C168.151 201.261 175.618 197.006 175.618 191.752V95.8104C175.618 82.3794 164.244 70.4284 150.2 71.5014V71.4274Z" fill="#5C54BD"/>
</g>
</svg>
