<svg width="253" height="116" viewBox="0 0 253 116" fill="none" xmlns="http://www.w3.org/2000/svg">
<g id="Mask group">
<mask id="mask0_439_4431" style="mask-type:alpha" maskUnits="userSpaceOnUse" x="0" y="0" width="253" height="116">
<rect id="Rectangle 196" width="253" height="116" fill="#019DA7"/>
</mask>
<g mask="url(#mask0_439_4431)">
<g id="Group">
<path id="Vector" d="M37.0361 52.1573V79.5095C37.0361 73.4742 43.7678 67.9032 55.1033 63.3767C55.1033 63.3767 56.5734 62.7964 57.1538 62.5643C65.2008 59.2372 69.8433 53.7048 69.8433 43.9942V31.3047C49.7257 36.3728 37.0361 43.8008 37.0361 52.1186V52.1573Z" fill="white" fill-opacity="0.2"/>
<path id="Vector_2" d="M114.879 1.94519C114.879 11.3076 107.296 18.8904 97.9335 18.8904C88.5711 18.8904 80.9883 11.3076 80.9883 1.94519C80.9883 -7.41722 88.5711 -15 97.9335 -15C107.296 -15 114.879 -7.41722 114.879 1.94519Z" fill="white" fill-opacity="0.2"/>
<path id="Vector_3" d="M132.329 24.5801C123.392 24.5801 111.709 24.9283 103.546 25.8568C89.9662 27.4043 81.3389 37.0375 81.3389 51.0037V142.113C81.3389 147.607 88.7668 152.056 97.9745 152.056C107.182 152.056 114.572 147.607 114.572 142.113V57.8901C114.572 54.7951 117.048 52.5899 120.143 52.2031C124.166 52.0483 128.228 51.9322 132.368 51.9322C185.022 51.9322 227.694 64.2736 227.694 79.5165V52.1644C227.694 36.9214 185.022 24.5801 132.368 24.5801H132.329Z" fill="white" fill-opacity="0.2"/>
<path id="Vector_4" d="M187.111 74.7205V87.178C187.111 93.9483 193.92 100.525 203.94 97.6623C218.719 92.7877 227.656 86.4429 227.656 79.4791V52.127C227.656 61.4507 211.6 69.6911 187.111 74.7205Z" fill="#025ABD"/>
<path id="Vector_5" d="M175.964 55.4139C175.964 64.7764 168.381 72.3591 159.019 72.3591C149.657 72.3591 142.074 64.7764 142.074 55.4139C142.074 46.0515 149.657 38.4688 159.019 38.4688C168.381 38.4688 175.964 46.0515 175.964 55.4139Z" fill="#025ABD"/>
<path id="Vector_6" d="M150.2 79.2454C150.2 79.2454 138.478 79.7484 132.326 79.7484C79.6724 79.7484 37 67.407 37 52.1641V79.5162C37 94.7592 79.6724 107.101 132.326 107.101C133.796 107.101 136.659 107.101 136.659 107.101C139.832 107.101 142.385 109.654 142.385 112.826V205.058C142.385 210.551 149.813 215 158.982 215C168.151 215 175.618 210.551 175.618 205.058V104.741C175.618 90.697 164.244 78.2008 150.2 79.3228V79.2454Z" fill="#025ABD"/>
</g>
</g>
</g>
</svg>
