<svg width="17" height="16" viewBox="0 0 17 16" fill="none" xmlns="http://www.w3.org/2000/svg">
<path fill-rule="evenodd" clip-rule="evenodd" d="M4.35337 16H0.741403C0.335057 16 0 15.5656 0 15.0365V7.44202C0 6.91061 0.332681 6.47625 0.741403 6.47625H4.35574C4.76209 6.47625 5.09715 6.91061 5.09715 7.44202V15.0365C5.09715 15.5656 4.76447 16 4.35574 16H4.35337ZM16.261 15.9988C16.261 15.9995 16.2605 16 16.2598 16H12.6466C12.2403 16 11.9052 15.5656 11.9052 15.0365V4.82195C11.9052 4.29054 12.2379 3.85848 12.6466 3.85848H16.261C16.6673 3.85848 17.0024 4.29285 17.0024 4.82195V15.0342C17.0024 15.5628 16.6703 15.9969 16.2621 15.9977C16.2615 15.9977 16.261 15.9982 16.261 15.9988V15.9988ZM10.2941 15.9988C10.2941 15.9995 10.2936 16 10.2929 16H6.67976C6.27341 16 5.93836 15.5656 5.93836 15.0365V0.963466C5.93836 0.434368 6.27104 0 6.67976 0H10.2941C10.7004 0 11.0355 0.434368 11.0355 0.963466V15.0342C11.0355 15.5628 10.7035 15.9969 10.2953 15.9977C10.2946 15.9977 10.2941 15.9982 10.2941 15.9988V15.9988Z" fill="black"/>
</svg>
