<svg width="67" height="41" viewBox="0 0 67 41" fill="none" xmlns="http://www.w3.org/2000/svg">
<path d="M36.4453 31.4912C36.3639 31.8818 36.2581 32.3701 36.1279 32.9561C36.014 33.542 35.8757 34.1605 35.7129 34.8115C35.5664 35.4626 35.3874 36.1055 35.1758 36.7402C34.9805 37.3913 34.7607 37.9691 34.5166 38.4736C34.2725 38.9945 34.0039 39.4176 33.7109 39.7432C33.418 40.0687 33.0924 40.2314 32.7344 40.2314C32.1973 40.2314 31.7334 40.0687 31.3428 39.7432C30.9684 39.4339 30.651 39.0352 30.3906 38.5469C30.1302 38.0749 29.943 37.5622 29.8291 37.0088C29.6989 36.4554 29.6338 35.9427 29.6338 35.4707C29.6338 34.8197 29.6908 34.2744 29.8047 33.835C29.9186 33.4118 30.1139 33.0049 30.3906 32.6143C30.6836 32.2236 31.0742 31.8086 31.5625 31.3691C32.0508 30.9297 32.6774 30.3844 33.4424 29.7334C33.8167 29.4079 34.1748 29.0986 34.5166 28.8057C34.8584 28.5127 35.1839 28.2441 35.4932 28C35.5745 27.6745 35.6478 27.3734 35.7129 27.0967C35.7943 26.8037 35.8594 26.5433 35.9082 26.3154C35.485 26.8851 34.9723 27.3652 34.3701 27.7559C33.7842 28.1465 33.1087 28.3418 32.3438 28.3418C31.6439 28.3418 31.0742 28.0326 30.6348 27.4141C30.2116 26.7793 30 25.8516 30 24.6309C30 24.0286 30.1139 23.3369 30.3418 22.5557C30.5697 21.7744 30.8952 21.042 31.3184 20.3584C31.7415 19.6748 32.2624 19.097 32.8809 18.625C33.4993 18.153 34.1911 17.917 34.9561 17.917C35.3141 17.917 35.6234 18.0065 35.8838 18.1855C36.1442 18.3646 36.3639 18.5924 36.543 18.8691C36.722 19.1296 36.8604 19.4144 36.958 19.7236C37.0557 20.0166 37.1289 20.2933 37.1777 20.5537C37.2103 20.4561 37.2347 20.3584 37.251 20.2607C37.2673 20.1468 37.2917 20.0492 37.3242 19.9678C37.487 19.4144 37.666 19.04 37.8613 18.8447C38.0729 18.6331 38.3822 18.5273 38.7891 18.5273C39.0169 18.5273 39.2041 18.568 39.3506 18.6494C39.5133 18.7308 39.5947 18.804 39.5947 18.8691C39.5133 19.0482 39.4482 19.1865 39.3994 19.2842C39.3506 19.3818 39.3018 19.4876 39.2529 19.6016C39.2041 19.6992 39.1553 19.8294 39.1064 19.9922C39.0576 20.1549 38.9925 20.391 38.9111 20.7002C38.8786 20.8141 38.8135 21.0827 38.7158 21.5059C38.6344 21.9128 38.5205 22.401 38.374 22.9707C38.2438 23.5404 38.0973 24.167 37.9346 24.8506C37.7881 25.5342 37.6416 26.2015 37.4951 26.8525C37.9508 26.5921 38.4229 26.2747 38.9111 25.9004C39.3994 25.526 39.8633 25.1436 40.3027 24.7529C40.7422 24.3623 41.1328 23.9961 41.4746 23.6543C41.8164 23.2962 42.0687 23.0033 42.2314 22.7754C42.3617 22.5801 42.5081 22.4417 42.6709 22.3604C42.8337 22.279 42.972 22.2546 43.0859 22.2871C43.2161 22.3034 43.2894 22.3766 43.3057 22.5068C43.3382 22.6208 43.2894 22.7835 43.1592 22.9951C42.7848 23.5973 42.3291 24.1833 41.792 24.7529C41.2549 25.3063 40.7015 25.8271 40.1318 26.3154C39.5785 26.7874 39.0332 27.2106 38.4961 27.585C37.9753 27.943 37.5277 28.236 37.1533 28.4639C36.9906 29.1963 36.8522 29.7904 36.7383 30.2461C36.6243 30.7018 36.5267 31.1169 36.4453 31.4912ZM33.3691 26.6816C33.7109 26.6816 34.0283 26.5921 34.3213 26.4131C34.6305 26.234 34.9072 26.0306 35.1514 25.8027C35.3955 25.5586 35.599 25.3145 35.7617 25.0703C35.9245 24.8262 36.0465 24.6309 36.1279 24.4844C36.193 24.3379 36.2663 24.1426 36.3477 23.8984C36.4453 23.6543 36.5186 23.4183 36.5674 23.1904C36.6162 22.9626 36.6325 22.7591 36.6162 22.5801C36.6162 22.401 36.5592 22.3034 36.4453 22.2871C36.3477 22.2708 36.2663 22.2057 36.2012 22.0918C36.1523 21.9779 36.1117 21.8477 36.0791 21.7012C36.0465 21.5547 36.0221 21.4082 36.0059 21.2617C36.0059 21.1152 35.9977 20.985 35.9814 20.8711C35.9001 20.3014 35.7617 19.8864 35.5664 19.626C35.3711 19.3656 35.1514 19.2354 34.9072 19.2354C34.5003 19.2354 34.1097 19.3981 33.7354 19.7236C33.3773 20.0492 33.0518 20.4723 32.7588 20.9932C32.4821 21.4977 32.2624 22.0592 32.0996 22.6777C31.9368 23.2799 31.8555 23.8577 31.8555 24.4111C31.8555 25.0947 31.9531 25.6481 32.1484 26.0713C32.3438 26.4782 32.7507 26.6816 33.3691 26.6816ZM32.2461 38.0098C32.5716 38.0098 32.832 37.7656 33.0273 37.2773C33.2389 36.8053 33.4587 36.1543 33.6865 35.3242C33.7354 35.1289 33.8005 34.8441 33.8818 34.4697C33.9795 34.1117 34.0853 33.6966 34.1992 33.2246C34.3294 32.7526 34.4596 32.2399 34.5898 31.6865C34.7201 31.1494 34.8584 30.6042 35.0049 30.0508C34.8747 30.1647 34.7363 30.2786 34.5898 30.3926C34.4596 30.5228 34.3213 30.6693 34.1748 30.832C33.8167 31.1738 33.4668 31.4993 33.125 31.8086C32.7995 32.1341 32.5065 32.4678 32.2461 32.8096C31.9857 33.1676 31.7741 33.5501 31.6113 33.957C31.4648 34.3639 31.3916 34.8359 31.3916 35.373C31.3916 35.9102 31.4079 36.3496 31.4404 36.6914C31.4893 37.0332 31.5462 37.3018 31.6113 37.4971C31.6927 37.6924 31.7822 37.8226 31.8799 37.8877C31.9938 37.9691 32.1159 38.0098 32.2461 38.0098ZM47.4756 24.1182C47.3128 24.7367 47.0931 25.3145 46.8164 25.8516C46.5397 26.3887 46.2061 26.8525 45.8154 27.2432C45.4411 27.6338 45.0098 27.9349 44.5215 28.1465C44.0495 28.3743 43.5286 28.4883 42.959 28.4883C42.2917 28.4883 41.7627 28.3418 41.3721 28.0488C40.9977 27.7721 40.7129 27.4222 40.5176 26.999C40.3385 26.5758 40.2327 26.112 40.2002 25.6074C40.1514 25.1029 40.127 24.6309 40.127 24.1914C40.127 23.8822 40.1676 23.5404 40.249 23.166C40.3141 22.7917 40.4118 22.4092 40.542 22.0186C40.6722 21.6279 40.835 21.2373 41.0303 20.8467C41.2419 20.4561 41.486 20.098 41.7627 19.7725C41.8604 19.4958 42.0068 19.2516 42.2021 19.04C42.4137 18.8285 42.6497 18.6576 42.9102 18.5273C43.1868 18.3809 43.4798 18.2751 43.7891 18.21C44.0983 18.1286 44.3994 18.0879 44.6924 18.0879C44.7412 18.0879 44.7819 18.096 44.8145 18.1123C44.8633 18.1286 44.9121 18.1449 44.9609 18.1611C45.1725 18.1774 45.4329 18.2588 45.7422 18.4053C46.0677 18.5518 46.377 18.7715 46.6699 19.0645C46.9792 19.3574 47.2396 19.7318 47.4512 20.1875C47.6628 20.627 47.7686 21.1641 47.7686 21.7988C47.7686 21.929 47.7604 22.0918 47.7441 22.2871C47.7279 22.4661 47.7116 22.6208 47.6953 22.751C48.0697 22.6045 48.4603 22.4255 48.8672 22.2139C49.2741 22.0023 49.6647 21.7826 50.0391 21.5547C50.4297 21.3105 50.7878 21.0664 51.1133 20.8223C51.4388 20.5781 51.6992 20.3584 51.8945 20.1631C52.0573 20.0166 52.1956 19.9352 52.3096 19.9189C52.4235 19.9027 52.5049 19.9352 52.5537 20.0166C52.6025 20.098 52.6107 20.2119 52.5781 20.3584C52.5456 20.5049 52.4561 20.6676 52.3096 20.8467C52.2282 20.9443 52.0166 21.1396 51.6748 21.4326C51.3493 21.7256 50.9587 22.043 50.5029 22.3848C50.0472 22.7266 49.5508 23.0602 49.0137 23.3857C48.4766 23.7113 47.9639 23.9554 47.4756 24.1182ZM43.3496 20.4072C43.3008 20.5537 43.2764 20.7083 43.2764 20.8711C43.2764 21.1315 43.2926 21.4082 43.3252 21.7012C43.3577 21.9779 43.4391 22.2301 43.5693 22.458C43.6995 22.6859 43.903 22.8812 44.1797 23.0439C44.4727 23.1904 44.8714 23.2637 45.376 23.2637C45.4574 23.2637 45.5387 23.2637 45.6201 23.2637C45.7015 23.2474 45.7829 23.2311 45.8643 23.2148C45.9131 23.0033 45.9538 22.8161 45.9863 22.6533C46.0352 22.4743 46.0596 22.3197 46.0596 22.1895C46.0921 21.8802 46.0921 21.5628 46.0596 21.2373C46.027 20.9118 45.9619 20.6188 45.8643 20.3584C45.7829 20.0817 45.6689 19.862 45.5225 19.6992C45.3923 19.5202 45.2295 19.4307 45.0342 19.4307C44.7249 19.4307 44.4238 19.5202 44.1309 19.6992C43.8542 19.862 43.5938 20.098 43.3496 20.4072ZM41.7871 24.7041C41.7871 24.9971 41.8034 25.29 41.8359 25.583C41.8685 25.8597 41.9336 26.112 42.0312 26.3398C42.1289 26.5514 42.2591 26.7305 42.4219 26.877C42.5846 27.0072 42.7962 27.0723 43.0566 27.0723C43.3496 27.0723 43.6182 27.0072 43.8623 26.877C44.1064 26.7305 44.3262 26.5514 44.5215 26.3398C44.7168 26.112 44.8877 25.8597 45.0342 25.583C45.1969 25.29 45.3353 24.9889 45.4492 24.6797C45.3353 24.696 45.2214 24.7122 45.1074 24.7285C45.0098 24.7285 44.8958 24.7285 44.7656 24.7285C44.1471 24.7285 43.61 24.5495 43.1543 24.1914C42.7148 23.8171 42.373 23.3451 42.1289 22.7754C42.0312 23.1172 41.9499 23.4508 41.8848 23.7764C41.8197 24.1019 41.7871 24.4111 41.7871 24.7041Z" fill="white"/>
<path d="M1 25.25C0.585786 25.25 0.25 25.5858 0.25 26C0.25 26.4142 0.585786 26.75 1 26.75L1 25.25ZM24.5303 26.5303C24.8232 26.2374 24.8232 25.7626 24.5303 25.4697L19.7574 20.6967C19.4645 20.4038 18.9896 20.4038 18.6967 20.6967C18.4038 20.9896 18.4038 21.4645 18.6967 21.7574L22.9393 26L18.6967 30.2426C18.4038 30.5355 18.4038 31.0104 18.6967 31.3033C18.9896 31.5962 19.4645 31.5962 19.7574 31.3033L24.5303 26.5303ZM1 26.75L24 26.75L24 25.25L1 25.25L1 26.75Z" fill="white"/>
</svg>
