<svg width="115" height="80" viewBox="0 0 115 80" fill="none" xmlns="http://www.w3.org/2000/svg">
<path d="M88.3125 54.5859C88.1823 55.2109 88.013 55.9922 87.8047 56.9297C87.6224 57.8672 87.401 58.8568 87.1406 59.8984C86.9062 60.9401 86.6198 61.9688 86.2812 62.9844C85.9688 64.026 85.6172 64.9505 85.2266 65.7578C84.8359 66.5911 84.4062 67.2682 83.9375 67.7891C83.4688 68.3099 82.9479 68.5703 82.375 68.5703C81.5156 68.5703 80.7734 68.3099 80.1484 67.7891C79.5495 67.2943 79.0417 66.6562 78.625 65.875C78.2083 65.1198 77.9089 64.2995 77.7266 63.4141C77.5182 62.5286 77.4141 61.7083 77.4141 60.9531C77.4141 59.9115 77.5052 59.0391 77.6875 58.3359C77.8698 57.6589 78.1823 57.0078 78.625 56.3828C79.0938 55.7578 79.7188 55.0938 80.5 54.3906C81.2812 53.6875 82.2839 52.8151 83.5078 51.7734C84.1068 51.2526 84.6797 50.7578 85.2266 50.2891C85.7734 49.8203 86.2943 49.3906 86.7891 49C86.9193 48.4792 87.0365 47.9974 87.1406 47.5547C87.2708 47.0859 87.375 46.6693 87.4531 46.3047C86.776 47.2161 85.9557 47.9844 84.9922 48.6094C84.0547 49.2344 82.974 49.5469 81.75 49.5469C80.6302 49.5469 79.7188 49.0521 79.0156 48.0625C78.3385 47.0469 78 45.5625 78 43.6094C78 42.6458 78.1823 41.5391 78.5469 40.2891C78.9115 39.0391 79.4323 37.8672 80.1094 36.7734C80.7865 35.6797 81.6198 34.7552 82.6094 34C83.599 33.2448 84.7057 32.8672 85.9297 32.8672C86.5026 32.8672 86.9974 33.0104 87.4141 33.2969C87.8307 33.5833 88.1823 33.9479 88.4688 34.3906C88.7552 34.8073 88.9766 35.263 89.1328 35.7578C89.2891 36.2266 89.4062 36.6693 89.4844 37.0859C89.5365 36.9297 89.5755 36.7734 89.6016 36.6172C89.6276 36.4349 89.6667 36.2786 89.7188 36.1484C89.9792 35.263 90.2656 34.6641 90.5781 34.3516C90.9167 34.013 91.4115 33.8438 92.0625 33.8438C92.4271 33.8438 92.7266 33.9089 92.9609 34.0391C93.2214 34.1693 93.3516 34.2865 93.3516 34.3906C93.2214 34.6771 93.1172 34.8984 93.0391 35.0547C92.9609 35.2109 92.8828 35.3802 92.8047 35.5625C92.7266 35.7188 92.6484 35.9271 92.5703 36.1875C92.4922 36.4479 92.388 36.8255 92.2578 37.3203C92.2057 37.5026 92.1016 37.9323 91.9453 38.6094C91.8151 39.2604 91.6328 40.0417 91.3984 40.9531C91.1901 41.8646 90.9557 42.8672 90.6953 43.9609C90.4609 45.0547 90.2266 46.1224 89.9922 47.1641C90.7214 46.7474 91.4766 46.2396 92.2578 45.6406C93.0391 45.0417 93.7812 44.4297 94.4844 43.8047C95.1875 43.1797 95.8125 42.5938 96.3594 42.0469C96.9062 41.474 97.3099 41.0052 97.5703 40.6406C97.7786 40.3281 98.013 40.1068 98.2734 39.9766C98.5339 39.8464 98.7552 39.8073 98.9375 39.8594C99.1458 39.8854 99.263 40.0026 99.2891 40.2109C99.3411 40.3932 99.263 40.6536 99.0547 40.9922C98.4557 41.9557 97.7266 42.8932 96.8672 43.8047C96.0078 44.6901 95.1224 45.5234 94.2109 46.3047C93.3255 47.0599 92.4531 47.737 91.5938 48.3359C90.7604 48.9089 90.0443 49.3776 89.4453 49.7422C89.1849 50.9141 88.9635 51.8646 88.7812 52.5938C88.599 53.3229 88.4427 53.987 88.3125 54.5859ZM83.3906 46.8906C83.9375 46.8906 84.4453 46.7474 84.9141 46.4609C85.4089 46.1745 85.8516 45.849 86.2422 45.4844C86.6328 45.0938 86.9583 44.7031 87.2188 44.3125C87.4792 43.9219 87.6745 43.6094 87.8047 43.375C87.9089 43.1406 88.026 42.8281 88.1562 42.4375C88.3125 42.0469 88.4297 41.6693 88.5078 41.3047C88.5859 40.9401 88.612 40.6146 88.5859 40.3281C88.5859 40.0417 88.4948 39.8854 88.3125 39.8594C88.1562 39.8333 88.026 39.7292 87.9219 39.5469C87.8438 39.3646 87.7786 39.1562 87.7266 38.9219C87.6745 38.6875 87.6354 38.4531 87.6094 38.2188C87.6094 37.9844 87.5964 37.776 87.5703 37.5938C87.4401 36.6823 87.2188 36.0182 86.9062 35.6016C86.5938 35.1849 86.2422 34.9766 85.8516 34.9766C85.2005 34.9766 84.5755 35.237 83.9766 35.7578C83.4036 36.2786 82.8828 36.9557 82.4141 37.7891C81.9714 38.5964 81.6198 39.4948 81.3594 40.4844C81.099 41.4479 80.9688 42.3724 80.9688 43.2578C80.9688 44.3516 81.125 45.237 81.4375 45.9141C81.75 46.5651 82.401 46.8906 83.3906 46.8906ZM81.5938 65.0156C82.1146 65.0156 82.5312 64.625 82.8438 63.8438C83.1823 63.0885 83.5339 62.0469 83.8984 60.7188C83.9766 60.4062 84.0807 59.9505 84.2109 59.3516C84.3672 58.7786 84.5365 58.1146 84.7188 57.3594C84.9271 56.6042 85.1354 55.7839 85.3438 54.8984C85.5521 54.0391 85.7734 53.1667 86.0078 52.2812C85.7995 52.4635 85.5781 52.6458 85.3438 52.8281C85.1354 53.0365 84.9141 53.2708 84.6797 53.5312C84.1068 54.0781 83.5469 54.599 83 55.0938C82.4792 55.6146 82.0104 56.1484 81.5938 56.6953C81.1771 57.2682 80.8385 57.8802 80.5781 58.5312C80.3438 59.1823 80.2266 59.9375 80.2266 60.7969C80.2266 61.6562 80.2526 62.3594 80.3047 62.9062C80.3828 63.4531 80.474 63.8828 80.5781 64.1953C80.7083 64.5078 80.8516 64.7161 81.0078 64.8203C81.1901 64.9505 81.3854 65.0156 81.5938 65.0156ZM105.961 42.7891C105.701 43.7786 105.349 44.7031 104.906 45.5625C104.464 46.4219 103.93 47.1641 103.305 47.7891C102.706 48.4141 102.016 48.8958 101.234 49.2344C100.479 49.599 99.6458 49.7812 98.7344 49.7812C97.6667 49.7812 96.8203 49.5469 96.1953 49.0781C95.5964 48.6354 95.1406 48.0755 94.8281 47.3984C94.5417 46.7214 94.3724 45.9792 94.3203 45.1719C94.2422 44.3646 94.2031 43.6094 94.2031 42.9062C94.2031 42.4115 94.2682 41.8646 94.3984 41.2656C94.5026 40.6667 94.6589 40.0547 94.8672 39.4297C95.0755 38.8047 95.3359 38.1797 95.6484 37.5547C95.987 36.9297 96.3776 36.3568 96.8203 35.8359C96.9766 35.3932 97.2109 35.0026 97.5234 34.6641C97.862 34.3255 98.2396 34.0521 98.6562 33.8438C99.099 33.6094 99.5677 33.4401 100.062 33.3359C100.557 33.2057 101.039 33.1406 101.508 33.1406C101.586 33.1406 101.651 33.1536 101.703 33.1797C101.781 33.2057 101.859 33.2318 101.938 33.2578C102.276 33.2839 102.693 33.4141 103.188 33.6484C103.708 33.8828 104.203 34.2344 104.672 34.7031C105.167 35.1719 105.583 35.7708 105.922 36.5C106.26 37.2031 106.43 38.0625 106.43 39.0781C106.43 39.2865 106.417 39.5469 106.391 39.8594C106.365 40.1458 106.339 40.3932 106.312 40.6016C106.911 40.3672 107.536 40.0807 108.188 39.7422C108.839 39.4036 109.464 39.0521 110.062 38.6875C110.688 38.2969 111.26 37.9062 111.781 37.5156C112.302 37.125 112.719 36.7734 113.031 36.4609C113.292 36.2266 113.513 36.0964 113.695 36.0703C113.878 36.0443 114.008 36.0964 114.086 36.2266C114.164 36.3568 114.177 36.5391 114.125 36.7734C114.073 37.0078 113.93 37.2682 113.695 37.5547C113.565 37.7109 113.227 38.0234 112.68 38.4922C112.159 38.9609 111.534 39.4688 110.805 40.0156C110.076 40.5625 109.281 41.0964 108.422 41.6172C107.562 42.138 106.742 42.5286 105.961 42.7891ZM99.3594 36.8516C99.2812 37.0859 99.2422 37.3333 99.2422 37.5938C99.2422 38.0104 99.2682 38.4531 99.3203 38.9219C99.3724 39.3646 99.5026 39.7682 99.7109 40.1328C99.9193 40.4974 100.245 40.8099 100.688 41.0703C101.156 41.3047 101.794 41.4219 102.602 41.4219C102.732 41.4219 102.862 41.4219 102.992 41.4219C103.122 41.3958 103.253 41.3698 103.383 41.3438C103.461 41.0052 103.526 40.7057 103.578 40.4453C103.656 40.1589 103.695 39.9115 103.695 39.7031C103.747 39.2083 103.747 38.7005 103.695 38.1797C103.643 37.6589 103.539 37.1901 103.383 36.7734C103.253 36.3307 103.07 35.9792 102.836 35.7188C102.628 35.4323 102.367 35.2891 102.055 35.2891C101.56 35.2891 101.078 35.4323 100.609 35.7188C100.167 35.9792 99.75 36.3568 99.3594 36.8516ZM96.8594 43.7266C96.8594 44.1953 96.8854 44.6641 96.9375 45.1328C96.9896 45.5755 97.0938 45.9792 97.25 46.3438C97.4062 46.6823 97.6146 46.9688 97.875 47.2031C98.1354 47.4115 98.474 47.5156 98.8906 47.5156C99.3594 47.5156 99.7891 47.4115 100.18 47.2031C100.57 46.9688 100.922 46.6823 101.234 46.3438C101.547 45.9792 101.82 45.5755 102.055 45.1328C102.315 44.6641 102.536 44.1823 102.719 43.6875C102.536 43.7135 102.354 43.7396 102.172 43.7656C102.016 43.7656 101.833 43.7656 101.625 43.7656C100.635 43.7656 99.776 43.4792 99.0469 42.9062C98.3438 42.3073 97.7969 41.5521 97.4062 40.6406C97.25 41.1875 97.1198 41.7214 97.0156 42.2422C96.9115 42.763 96.8594 43.2578 96.8594 43.7266Z" fill="white"/>
<path d="M1 45C0.447715 45 4.82822e-08 45.4477 0 46C-4.82822e-08 46.5523 0.447715 47 1 47L1 45ZM69.7071 46.7071C70.0976 46.3166 70.0976 45.6834 69.7071 45.2929L63.3431 38.9289C62.9526 38.5384 62.3195 38.5384 61.9289 38.9289C61.5384 39.3195 61.5384 39.9526 61.9289 40.3432L67.5858 46L61.9289 51.6569C61.5384 52.0474 61.5384 52.6805 61.9289 53.0711C62.3195 53.4616 62.9526 53.4616 63.3431 53.0711L69.7071 46.7071ZM1 47L69 47L69 45L1 45L1 47Z" fill="white"/>
</svg>
