<svg width="113" height="38" viewBox="0 0 113 38" fill="none" xmlns="http://www.w3.org/2000/svg">
<path d="M103.82 19.1984C102.247 19.1984 100.9 18.8117 99.7804 18.0384C98.6871 17.2384 97.8604 16.1984 97.3004 14.9184C96.7404 13.6384 96.4604 12.265 96.4604 10.7984C96.4604 8.77169 96.8338 6.97169 97.5805 5.39836C98.3538 3.79836 99.3938 2.55836 100.7 1.67836C102.007 0.771694 103.474 0.318359 105.1 0.318359C106.674 0.318359 108.02 0.71836 109.14 1.51836C110.26 2.29169 111.1 3.31836 111.66 4.59836C112.22 5.87836 112.5 7.25169 112.5 8.71836C112.5 10.745 112.114 12.5584 111.34 14.1584C110.567 15.7317 109.514 16.9717 108.18 17.8784C106.874 18.7584 105.42 19.1984 103.82 19.1984ZM104.26 14.8784C105.167 14.8784 105.927 14.385 106.54 13.3984C107.18 12.4117 107.5 10.9717 107.5 9.07836C107.5 7.61169 107.234 6.50503 106.7 5.75836C106.167 5.01169 105.527 4.63836 104.78 4.63836C103.82 4.63836 103.02 5.13169 102.38 6.11836C101.767 7.07836 101.46 8.51836 101.46 10.4384C101.46 11.9584 101.727 13.0784 102.26 13.7984C102.794 14.5184 103.46 14.8784 104.26 14.8784Z" fill="white"/>
<path d="M100.4 10.1593C100.747 10.1593 101.013 10.3326 101.2 10.6793C101.413 10.9993 101.52 11.4126 101.52 11.9193C101.52 12.5326 101.427 13.0126 101.24 13.3593C101.053 13.706 100.76 14.0126 100.36 14.2793C98.0666 15.826 96.3866 16.9726 95.3199 17.7193L92.7599 19.4393C91.7466 24.9593 90.4133 29.2926 88.7599 32.4393C87.1333 35.6126 85.0533 37.1993 82.5199 37.1993C81.1599 37.1993 80.0533 36.7726 79.1999 35.9193C78.3466 35.0926 77.9199 33.9993 77.9199 32.6393C77.9199 30.746 78.6666 28.706 80.1599 26.5193C81.6533 24.3593 84.4533 21.6926 88.5599 18.5193L88.7999 16.9593C88.3466 17.6793 87.7466 18.2393 86.9999 18.6393C86.2799 19.0126 85.5599 19.1993 84.8399 19.1993C83.1866 19.1993 81.8666 18.5993 80.8799 17.3993C79.8933 16.1993 79.3999 14.626 79.3999 12.6793C79.3999 10.546 79.8933 8.53263 80.8799 6.6393C81.8666 4.7193 83.1733 3.18597 84.7999 2.0393C86.4533 0.865966 88.1999 0.279297 90.0399 0.279297C90.6266 0.279297 91.0133 0.399297 91.1999 0.639297C91.4133 0.85263 91.5866 1.25263 91.7199 1.8393C92.2266 1.73263 92.8133 1.6793 93.4799 1.6793C94.1466 1.6793 94.6133 1.78596 94.8799 1.9993C95.1733 2.18596 95.3199 2.57263 95.3199 3.1593C95.3199 3.4793 95.3066 3.73263 95.2799 3.9193C95.1733 4.74596 94.8399 6.8393 94.2799 10.1993C94.1733 10.8393 94.0533 11.546 93.9199 12.3193C93.8133 13.066 93.6933 13.866 93.5599 14.7193C95.6133 13.1193 97.5866 11.706 99.4799 10.4793C99.8266 10.266 100.133 10.1593 100.4 10.1593ZM86.2799 15.1593C86.8933 15.1593 87.4799 14.786 88.0399 14.0393C88.5999 13.2926 88.9999 12.226 89.2399 10.8393L90.5199 3.9993C89.4266 4.02597 88.4133 4.45263 87.4799 5.2793C86.5466 6.0793 85.7999 7.14596 85.2399 8.4793C84.6799 9.81263 84.3999 11.226 84.3999 12.7193C84.3999 13.546 84.5599 14.1593 84.8799 14.5593C85.2266 14.9593 85.6933 15.1593 86.2799 15.1593ZM82.9599 33.3193C83.6266 33.3193 84.3733 32.5193 85.1999 30.9193C86.0533 29.3193 86.8666 26.7726 87.6399 23.2793C85.5866 25.0393 84.1066 26.626 83.1999 28.0393C82.2933 29.4526 81.8399 30.6926 81.8399 31.7593C81.8399 32.2126 81.9199 32.586 82.0799 32.8793C82.2666 33.1726 82.5599 33.3193 82.9599 33.3193Z" fill="white"/>
<path d="M1 14C0.447715 14 4.82822e-08 14.4477 0 15C-4.82822e-08 15.5523 0.447715 16 1 16L1 14ZM69.7071 15.7071C70.0976 15.3166 70.0976 14.6834 69.7071 14.2929L63.3431 7.92894C62.9526 7.53841 62.3195 7.53841 61.9289 7.92894C61.5384 8.31946 61.5384 8.95263 61.9289 9.34315L67.5858 15L61.9289 20.6569C61.5384 21.0474 61.5384 21.6805 61.9289 22.0711C62.3195 22.4616 62.9526 22.4616 63.3431 22.0711L69.7071 15.7071ZM1 16L69 16L69 14L1 14L1 16Z" fill="white"/>
</svg>
