<svg width="68" height="56" viewBox="0 0 68 56" fill="none" xmlns="http://www.w3.org/2000/svg">
<circle cx="40" cy="28" r="27.5" fill="black" fill-opacity="0.7" stroke="black"/>
<path d="M1 27.25C0.585786 27.25 0.25 27.5858 0.25 28C0.25 28.4142 0.585787 28.75 1 28.75L1 27.25ZM24.5303 28.5303C24.8232 28.2374 24.8232 27.7626 24.5303 27.4697L19.7574 22.6967C19.4645 22.4038 18.9896 22.4038 18.6967 22.6967C18.4038 22.9896 18.4038 23.4645 18.6967 23.7574L22.9393 28L18.6967 32.2426C18.4038 32.5355 18.4038 33.0104 18.6967 33.3033C18.9896 33.5962 19.4645 33.5962 19.7574 33.3033L24.5303 28.5303ZM1 28.75L24 28.75L24 27.25L1 27.25L1 28.75Z" fill="white"/>
<path d="M39.6974 18.608V20.576H25.8734V18.608H31.4414V18.016H26.7214V12H38.8654V13.68H29.3934V14.256H38.6414V15.792H29.3934V16.352H39.0254V18.016H34.1294V18.608H39.6974ZM32.7854 20.96C34.7267 20.96 36.252 21.1627 37.3614 21.568C38.4814 21.9627 39.0414 22.576 39.0414 23.408C39.0414 24.24 38.4814 24.8533 37.3614 25.248C36.252 25.6533 34.7267 25.856 32.7854 25.856C30.844 25.856 29.3134 25.6533 28.1934 25.248C27.084 24.8533 26.5294 24.24 26.5294 23.408C26.5294 22.576 27.084 21.9627 28.1934 21.568C29.3134 21.1627 30.844 20.96 32.7854 20.96ZM32.7854 23.984C35.0467 23.984 36.1774 23.792 36.1774 23.408C36.1774 23.216 35.8734 23.072 35.2654 22.976C34.6574 22.88 33.8307 22.832 32.7854 22.832C31.74 22.832 30.9134 22.88 30.3054 22.976C29.6974 23.072 29.3934 23.216 29.3934 23.408C29.3934 23.792 30.524 23.984 32.7854 23.984ZM53.904 12V25.664H51.392V12H53.904ZM47.904 12.064H50.384V25.424H47.904V21.712H45.376C44.8427 22.7787 44.1493 23.5893 43.296 24.144C42.4427 24.7093 41.5093 25.0027 40.496 25.024V22.496C41.5413 22.4107 42.3627 21.8613 42.96 20.848C43.5573 19.824 43.856 18.3733 43.856 16.496V14.752H40.496V12.32H46.432V14.896H47.904V12.064ZM47.904 19.2V17.408H46.4C46.368 17.952 46.2987 18.5493 46.192 19.2H47.904ZM39.6974 40.656V43.184H25.8734V40.656H31.4094V38.576H26.6254V30.32H29.2814V32.064H36.2894V30.32H38.9454V38.576H34.1614V40.656H39.6974ZM29.2814 36.16H36.2894V34.448H29.2814V36.16ZM53.52 43.664H50.816V30H53.52V43.664ZM48.704 34.016C48.704 35.8507 48.3787 37.4453 47.728 38.8C47.088 40.1547 46.176 41.2 44.992 41.936C43.808 42.6613 42.4213 43.024 40.832 43.024V40.464C42.464 40.4533 43.7227 39.8773 44.608 38.736C45.4933 37.5947 45.936 36.0213 45.936 34.016V32.784H40.832V30.32H48.704V34.016Z" fill="white"/>
</svg>
