<svg width="68" height="56" viewBox="0 0 68 56" fill="none" xmlns="http://www.w3.org/2000/svg">
<circle cx="40" cy="28" r="28" fill="black"/>
<path d="M41.3623 21.0205V22.1191H29.3652V21.0205H34.668V19.8779H30.9326V14.4727H39.8975V15.5713H32.3389V16.6406H39.5605V17.6807H32.3389V18.7939H39.9854V19.8779H36.0596V21.0205H41.3623ZM35.3711 22.9834C38.2568 22.9688 39.8975 23.7305 39.8975 25.1074C39.8975 26.499 38.2568 27.2314 35.3711 27.2168C32.4561 27.2314 30.8154 26.499 30.8154 25.1074C30.8154 23.7305 32.4561 22.9688 35.3711 22.9834ZM35.3711 24.0234C33.3057 24.0234 32.1924 24.4043 32.207 25.1074C32.1924 25.8105 33.3057 26.1768 35.3711 26.1621C37.4072 26.1768 38.5059 25.8105 38.5059 25.1074C38.5059 24.4043 37.4072 24.0234 35.3711 24.0234Z" fill="white"/>
<path d="M52.8877 14.1211V27.2461H51.5693V14.1211H52.8877ZM50.207 14.458V26.6016H48.8887V22.1338H46.6475V20.9912H48.8887V18.8525H46.8672C46.23 21.0571 44.8311 22.9688 42.3555 24.4482L41.5352 23.4521C44.3184 21.7969 45.6587 19.5923 45.9004 16.8896H42.1797V15.7471H47.2773C47.2773 16.4209 47.2261 17.0728 47.1162 17.71H48.8887V14.458H50.207Z" fill="white"/>
<path d="M41.4062 40.4629V41.6201H29.3945V40.4629H34.6826V37.7676H30.7715V31.0146H32.1631V33.2705H38.6084V31.0146H39.9854V37.7676H36.0596V40.4629H41.4062ZM32.1631 36.6396H38.6084V34.3984H32.1631V36.6396Z" fill="white"/>
<path d="M52.5215 30.1211V43.2461H51.1152V30.1211H52.5215ZM48.6104 31.5273C48.6104 35.3652 46.9697 38.7051 42.4727 40.8584L41.7402 39.7305C45.2339 38.0679 46.9331 35.7021 47.2041 32.6406H42.3701V31.5273H48.6104Z" fill="white"/>
<path d="M1 27.25C0.585786 27.25 0.25 27.5858 0.25 28C0.25 28.4142 0.585786 28.75 1 28.75L1 27.25ZM24.5303 28.5303C24.8232 28.2374 24.8232 27.7626 24.5303 27.4697L19.7574 22.6967C19.4645 22.4038 18.9896 22.4038 18.6967 22.6967C18.4038 22.9896 18.4038 23.4645 18.6967 23.7574L22.9393 28L18.6967 32.2426C18.4038 32.5355 18.4038 33.0104 18.6967 33.3033C18.9896 33.5962 19.4645 33.5962 19.7574 33.3033L24.5303 28.5303ZM1 28.75L24 28.75L24 27.25L1 27.25L1 28.75Z" fill="white"/>
</svg>
