<svg width="126" height="76" viewBox="0 0 126 76" fill="none" xmlns="http://www.w3.org/2000/svg">
<circle cx="88" cy="38" r="38" fill="black"/>
<path d="M103.82 42.1984C102.247 42.1984 100.9 41.8117 99.7804 41.0384C98.6871 40.2384 97.8604 39.1984 97.3004 37.9184C96.7404 36.6384 96.4604 35.265 96.4604 33.7984C96.4604 31.7717 96.8338 29.9717 97.5805 28.3984C98.3538 26.7984 99.3938 25.5584 100.7 24.6784C102.007 23.7717 103.474 23.3184 105.1 23.3184C106.674 23.3184 108.02 23.7184 109.14 24.5184C110.26 25.2917 111.1 26.3184 111.66 27.5984C112.22 28.8784 112.5 30.2517 112.5 31.7184C112.5 33.745 112.114 35.5584 111.34 37.1584C110.567 38.7317 109.514 39.9717 108.18 40.8784C106.874 41.7584 105.42 42.1984 103.82 42.1984ZM104.26 37.8784C105.167 37.8784 105.927 37.385 106.54 36.3984C107.18 35.4117 107.5 33.9717 107.5 32.0784C107.5 30.6117 107.234 29.505 106.7 28.7584C106.167 28.0117 105.527 27.6384 104.78 27.6384C103.82 27.6384 103.02 28.1317 102.38 29.1184C101.767 30.0784 101.46 31.5184 101.46 33.4384C101.46 34.9584 101.727 36.0784 102.26 36.7984C102.794 37.5184 103.46 37.8784 104.26 37.8784Z" fill="white"/>
<path d="M100.4 33.1593C100.747 33.1593 101.013 33.3326 101.2 33.6793C101.413 33.9993 101.52 34.4126 101.52 34.9193C101.52 35.5326 101.427 36.0126 101.24 36.3593C101.053 36.706 100.76 37.0126 100.36 37.2793C98.0666 38.826 96.3866 39.9726 95.3199 40.7193L92.7599 42.4393C91.7466 47.9593 90.4133 52.2926 88.7599 55.4393C87.1333 58.6126 85.0533 60.1993 82.5199 60.1993C81.1599 60.1993 80.0533 59.7726 79.1999 58.9193C78.3466 58.0926 77.9199 56.9993 77.9199 55.6393C77.9199 53.746 78.6666 51.706 80.1599 49.5193C81.6533 47.3593 84.4533 44.6926 88.5599 41.5193L88.7999 39.9593C88.3466 40.6793 87.7466 41.2393 86.9999 41.6393C86.2799 42.0126 85.5599 42.1993 84.8399 42.1993C83.1866 42.1993 81.8666 41.5993 80.8799 40.3993C79.8933 39.1993 79.3999 37.626 79.3999 35.6793C79.3999 33.546 79.8933 31.5326 80.8799 29.6393C81.8666 27.7193 83.1733 26.186 84.7999 25.0393C86.4533 23.866 88.1999 23.2793 90.0399 23.2793C90.6266 23.2793 91.0133 23.3993 91.1999 23.6393C91.4133 23.8526 91.5866 24.2526 91.7199 24.8393C92.2266 24.7326 92.8133 24.6793 93.4799 24.6793C94.1466 24.6793 94.6133 24.786 94.8799 24.9993C95.1733 25.186 95.3199 25.5726 95.3199 26.1593C95.3199 26.4793 95.3066 26.7326 95.2799 26.9193C95.1733 27.746 94.8399 29.8393 94.2799 33.1993C94.1733 33.8393 94.0533 34.546 93.9199 35.3193C93.8133 36.066 93.6933 36.866 93.5599 37.7193C95.6133 36.1193 97.5866 34.706 99.4799 33.4793C99.8266 33.266 100.133 33.1593 100.4 33.1593ZM86.2799 38.1593C86.8933 38.1593 87.4799 37.786 88.0399 37.0393C88.5999 36.2926 88.9999 35.226 89.2399 33.8393L90.5199 26.9993C89.4266 27.026 88.4133 27.4526 87.4799 28.2793C86.5466 29.0793 85.7999 30.146 85.2399 31.4793C84.6799 32.8126 84.3999 34.226 84.3999 35.7193C84.3999 36.546 84.5599 37.1593 84.8799 37.5593C85.2266 37.9593 85.6933 38.1593 86.2799 38.1593ZM82.9599 56.3193C83.6266 56.3193 84.3733 55.5193 85.1999 53.9193C86.0533 52.3193 86.8666 49.7726 87.6399 46.2793C85.5866 48.0393 84.1066 49.626 83.1999 51.0393C82.2933 52.4526 81.8399 53.6926 81.8399 54.7593C81.8399 55.2126 81.9199 55.586 82.0799 55.8793C82.2666 56.1726 82.5599 56.3193 82.9599 56.3193Z" fill="white"/>
<path d="M1 37C0.447715 37 4.82822e-08 37.4477 0 38C-4.82822e-08 38.5523 0.447715 39 1 39L1 37ZM69.7071 38.7071C70.0976 38.3166 70.0976 37.6834 69.7071 37.2929L63.3431 30.9289C62.9526 30.5384 62.3195 30.5384 61.9289 30.9289C61.5384 31.3195 61.5384 31.9526 61.9289 32.3432L67.5858 38L61.9289 43.6569C61.5384 44.0474 61.5384 44.6805 61.9289 45.0711C62.3195 45.4616 62.9526 45.4616 63.3431 45.0711L69.7071 38.7071ZM1 39L69 39L69 37L1 37L1 39Z" fill="white"/>
</svg>
