<svg width="22" height="25" viewBox="0 0 22 25" fill="none" xmlns="http://www.w3.org/2000/svg">
<g clip-path="url(#clip0_488_2388)">
<path fill-rule="evenodd" clip-rule="evenodd" d="M0 6.68719C0 4.65779 1.4104 2.76562 3.40365 2.76562C4.22519 2.76562 5.00222 2.90533 5.59862 3.15502C5.89554 3.27933 6.17859 3.44379 6.39727 3.65899C6.60238 3.86082 6.78 4.13913 6.80443 4.48229C6.81061 4.48789 6.81821 4.49442 6.82747 4.50187C6.91411 4.57159 7.07948 4.66352 7.34184 4.75337C7.8603 4.9309 8.61819 5.05321 9.48207 5.05321H12.5179C13.3818 5.05321 14.1397 4.9309 14.6582 4.75337C14.9205 4.66352 15.0859 4.57159 15.1725 4.50187C15.1818 4.49442 15.1894 4.48789 15.1956 4.48229C15.22 4.13913 15.3976 3.86082 15.6027 3.65899C15.8214 3.44379 16.1045 3.27933 16.4014 3.15502C16.9978 2.90533 17.7748 2.76562 18.5964 2.76562C20.5896 2.76562 22 4.65779 22 6.68719V21.0728C22 23.2312 20.1961 24.9944 17.9878 24.9944H4.01216C1.80394 24.9944 0 23.2312 0 21.0728V6.68719ZM15.2194 4.4574C15.2195 4.4574 15.2187 4.45864 15.2167 4.46108C15.2182 4.45861 15.2193 4.45739 15.2194 4.4574ZM6.78063 4.4574C6.78074 4.45739 6.78175 4.4586 6.78331 4.46103C6.7813 4.45862 6.78051 4.4574 6.78063 4.4574ZM3.40365 4.07281C2.38777 4.07281 1.33739 5.12183 1.33739 6.68719V21.0728C1.33739 22.5092 2.54256 23.6872 4.01216 23.6872H17.9878C19.4574 23.6872 20.6626 22.5092 20.6626 21.0728V6.68719C20.6626 5.12183 19.6122 4.07281 18.5964 4.07281C17.9133 4.07281 17.3229 4.19128 16.928 4.35662C16.7292 4.43983 16.6106 4.5221 16.5516 4.58019C16.5415 4.59013 16.5343 4.59811 16.5293 4.60412C16.5135 5.01501 16.2623 5.31811 16.0226 5.511C15.7697 5.71456 15.444 5.86936 15.1004 5.98703C14.4068 6.22453 13.493 6.3604 12.5179 6.3604H9.48207C8.50704 6.3604 7.59319 6.22453 6.89965 5.98703C6.556 5.86936 6.23031 5.71456 5.97737 5.511C5.7377 5.31811 5.48653 5.01501 5.4707 4.60412C5.46571 4.5981 5.45852 4.59013 5.44841 4.58019C5.38938 4.5221 5.2708 4.43983 5.07205 4.35662C4.67711 4.19128 4.08666 4.07281 3.40365 4.07281ZM5.48073 4.61797C5.48069 4.61797 5.48029 4.61735 5.47968 4.6161C5.48047 4.61735 5.48078 4.61798 5.48073 4.61797ZM16.5193 4.61797C16.5192 4.61797 16.5195 4.61735 16.5203 4.6161C16.5197 4.61735 16.5193 4.61798 16.5193 4.61797Z" fill="#2B2B2B"/>
<path fill-rule="evenodd" clip-rule="evenodd" d="M6.71204 0.878167C7.4436 0.325858 8.42583 0 9.48213 0H12.518C13.5743 0 14.5565 0.325858 15.2881 0.878167C16.0196 1.43045 16.5302 2.23807 16.5302 3.17647C16.5302 4.11487 16.0196 4.92249 15.2881 5.47478C14.5565 6.02708 13.5743 6.35294 12.518 6.35294H9.48213C8.42583 6.35294 7.4436 6.02708 6.71204 5.47478C5.98051 4.92249 5.46997 4.11487 5.46997 3.17647C5.46997 2.23807 5.98051 1.43045 6.71204 0.878167ZM7.52957 1.91268C7.0491 2.27543 6.80736 2.72925 6.80736 3.17647C6.80736 3.62369 7.0491 4.07751 7.52957 4.44026C8.01002 4.80298 8.69952 5.04575 9.48213 5.04575H12.518C13.3006 5.04575 13.9901 4.80298 14.4705 4.44026C14.951 4.07751 15.1928 3.62369 15.1928 3.17647C15.1928 2.72925 14.951 2.27543 14.4705 1.91268C13.9901 1.54996 13.3006 1.30719 12.518 1.30719H9.48213C8.69952 1.30719 8.01002 1.54996 7.52957 1.91268Z" fill="#2B2B2B"/>
<path fill-rule="evenodd" clip-rule="evenodd" d="M8.05103 11.2805C8.05103 10.9196 8.35041 10.627 8.71972 10.627H13.2802C13.6495 10.627 13.9489 10.9196 13.9489 11.2805C13.9489 11.6415 13.6495 11.9341 13.2802 11.9341H8.71972C8.35041 11.9341 8.05103 11.6415 8.05103 11.2805Z" fill="#F39800"/>
<path fill-rule="evenodd" clip-rule="evenodd" d="M8.05103 16.6282C8.05103 16.2672 8.35041 15.9746 8.71972 15.9746H13.2802C13.6495 15.9746 13.9489 16.2672 13.9489 16.6282C13.9489 16.9892 13.6495 17.2818 13.2802 17.2818H8.71972C8.35041 17.2818 8.05103 16.9892 8.05103 16.6282Z" fill="#F39800"/>
</g>
<defs>
<clipPath id="clip0_488_2388">
<rect width="22" height="25" fill="white"/>
</clipPath>
</defs>
</svg>
