<svg width="24" height="24" viewBox="0 0 24 24" fill="none" xmlns="http://www.w3.org/2000/svg">
<circle cx="12" cy="12" r="12" fill="#3680DA"/>
<path d="M12 9C12.5523 9 13 8.55228 13 8C13 7.44772 12.5523 7 12 7C11.4477 7 11 7.44772 11 8C11 8.55228 11.4477 9 12 9Z" fill="white"/>
<path d="M13.0032 15.9508V10.5603C13.0032 10.2086 12.6592 9.94404 12.2894 10.0102L10.6302 10.3679C10.2701 10.4341 10.0064 10.7287 10.0064 11.0744H10.9164C11.1479 11.0744 11.3344 11.2488 11.3344 11.4653V15.9508C11.3344 16.1883 11.1286 16.3807 10.8746 16.3807H10.5338C10.2379 16.3807 10 16.6032 10 16.8797V17H14V16.8797C14 16.6032 13.7621 16.3807 13.4662 16.3807C13.2122 16.3807 13.0064 16.1883 13.0064 15.9508H13.0032Z" fill="white"/>
</svg>
