<svg width="16" height="16" viewBox="0 0 16 16" fill="none" xmlns="http://www.w3.org/2000/svg">
<g id="_?&#235;&#141;&#137;&#236;&#148;&#160;??" clip-path="url(#clip0_428_672)">
<path id="Vector" d="M7.47926 0.168178L0.368148 5.29972C0.137037 5.46698 0 5.73413 0 6.0198V15.5562C0 15.8011 0.199259 16.0002 0.444444 16.0002H5.35259C5.59778 16.0002 5.79704 15.8011 5.79704 15.5562V9.73192C5.79704 9.48696 5.9963 9.28788 6.24148 9.28788H9.75852C10.0037 9.28788 10.203 9.48696 10.203 9.73192V15.5562C10.203 15.8011 10.4022 16.0002 10.6474 16.0002H15.5556C15.8007 16.0002 16 15.8011 16 15.5562V6.01906C16 5.73414 15.863 5.46624 15.6319 5.29898L8.52074 0.168178C8.21037 -0.0560592 7.78963 -0.0560592 7.47926 0.168178Z" fill="white"/>
</g>
<defs>
<clipPath id="clip0_428_672">
<rect width="16" height="16" fill="white"/>
</clipPath>
</defs>
</svg>
