<svg width="24" height="21" viewBox="0 0 24 21" fill="none" xmlns="http://www.w3.org/2000/svg">
<g clip-path="url(#clip0_498_1754)">
<path fill-rule="evenodd" clip-rule="evenodd" d="M18.4235 1.15766V15.1075H22.007V1.15766H18.4235ZM17.2046 0.978225C17.2046 0.438589 17.6664 0 18.2346 0H22.196C22.7641 0 23.2259 0.438587 23.2259 0.978225V15.2869C23.2259 15.8266 22.7641 16.2652 22.196 16.2652H18.2346C17.6664 16.2652 17.2046 15.8266 17.2046 15.2869V0.978225Z" fill="#2B2B2B"/>
<path fill-rule="evenodd" clip-rule="evenodd" d="M10.2082 5.16938V15.1137H13.7917V5.16938H10.2082ZM8.98926 4.98994C8.98926 4.45031 9.45105 4.01172 10.0192 4.01172H13.9806C14.5488 4.01172 15.0106 4.45031 15.0106 4.98994V15.2931C15.0106 15.8328 14.5488 16.2714 13.9806 16.2714H10.0192C9.45105 16.2714 8.98926 15.8328 8.98926 15.2931V4.98994Z" fill="#2B2B2B"/>
<path fill-rule="evenodd" clip-rule="evenodd" d="M1.98672 9.17524V15.1141H5.57635V9.17524H1.98672ZM0.767822 8.9958C0.767822 8.45554 1.22895 8.01758 1.79779 8.01758H5.76528C6.33412 8.01758 6.79525 8.45554 6.79525 8.9958V15.2935C6.79525 15.8337 6.33412 16.2717 5.76528 16.2717H1.79779C1.22895 16.2717 0.767822 15.8337 0.767822 15.2935V8.9958Z" fill="#2B2B2B"/>
<path fill-rule="evenodd" clip-rule="evenodd" d="M0 20.4206C0 20.1009 0.272858 19.8418 0.609446 19.8418H23.3906C23.7271 19.8418 24 20.1009 24 20.4206C24 20.7403 23.7271 20.9995 23.3906 20.9995H0.609446C0.272858 20.9995 0 20.7403 0 20.4206Z" fill="#F39800"/>
</g>
<defs>
<clipPath id="clip0_498_1754">
<rect width="24" height="21" fill="white"/>
</clipPath>
</defs>
</svg>
