<svg width="24" height="23" viewBox="0 0 24 23" fill="none" xmlns="http://www.w3.org/2000/svg">
<g clip-path="url(#clip0_488_2446)">
<path fill-rule="evenodd" clip-rule="evenodd" d="M7.85083 17.3059C8.17179 17.3625 8.38609 17.6684 8.32949 17.9891L7.79272 21.0308C7.79269 21.0311 7.79265 21.0313 7.79261 21.0315C7.73831 21.3442 7.78402 21.5844 7.84771 21.7146L7.84994 21.7192C7.88172 21.7856 7.91009 21.8106 7.9188 21.8169C7.92209 21.8193 7.92351 21.8198 7.92343 21.8198C7.92341 21.8198 7.9236 21.8198 7.92343 21.8198C7.92242 21.8195 7.92408 21.8203 7.93127 21.8203H16.069C16.0696 21.8203 16.07 21.8203 16.0703 21.8203C16.0712 21.8199 16.074 21.8185 16.0786 21.8151C16.0922 21.8052 16.1221 21.7769 16.1525 21.7146C16.2162 21.5845 16.2619 21.3443 16.2077 21.0317C16.2076 21.0314 16.2076 21.0311 16.2075 21.0308L15.6708 17.9891C15.6142 17.6684 15.8285 17.3625 16.1494 17.3059C16.4704 17.2494 16.7765 17.4635 16.8331 17.7843L17.3703 20.8287C17.4574 21.3295 17.4088 21.8322 17.2128 22.2327C17.0154 22.6363 16.6235 22.9998 16.069 22.9998H7.93127C7.37439 22.9998 6.98606 22.6462 6.78629 22.2304C6.59129 21.8302 6.54296 21.3286 6.62995 20.8287L6.63019 20.8274L7.16719 17.7843C7.2238 17.4635 7.52987 17.2494 7.85083 17.3059Z" fill="#2B2B2B"/>
<path fill-rule="evenodd" clip-rule="evenodd" d="M3.54069 1.17949C2.23705 1.17949 1.18023 2.23564 1.18023 3.53846V14.9382C1.18023 16.241 2.23705 17.2972 3.54069 17.2972H20.4593C21.763 17.2972 22.8198 16.241 22.8198 14.9382V3.53846C22.8198 2.23564 21.763 1.17949 20.4593 1.17949H3.54069ZM0 3.53846C0 1.58422 1.58522 0 3.54069 0H20.4593C22.4148 0 24 1.58422 24 3.53846V14.9382C24 16.8924 22.4148 18.4767 20.4593 18.4767H3.54069C1.58522 18.4767 0 16.8924 0 14.9382V3.53846Z" fill="#2B2B2B"/>
<path fill-rule="evenodd" clip-rule="evenodd" d="M11.9752 7.12828C11.3087 6.46218 10.2307 6.46218 9.56416 7.12828C8.89763 7.79438 8.89763 8.87175 9.56416 9.53785C10.2307 10.2039 11.3087 10.2039 11.9752 9.53785C12.6418 8.87175 12.6418 7.79438 11.9752 7.12828ZM8.72961 6.29426C9.85704 5.16754 11.6824 5.16754 12.8098 6.29426C13.9372 7.42098 13.9372 9.24515 12.8098 10.3719C11.6824 11.4986 9.85704 11.4986 8.72961 10.3719C7.60218 9.24515 7.60218 7.42098 8.72961 6.29426Z" fill="#F39800"/>
<path fill-rule="evenodd" clip-rule="evenodd" d="M12.0398 9.60878C12.2699 9.37819 12.6436 9.37775 12.8743 9.60778L15.3351 12.0611C15.5658 12.2911 15.5663 12.6645 15.3361 12.8951C15.1059 13.1257 14.7323 13.1262 14.5016 12.8961L12.0408 10.4428C11.81 10.2128 11.8096 9.83937 12.0398 9.60878Z" fill="#F39800"/>
</g>
<defs>
<clipPath id="clip0_488_2446">
<rect width="24" height="23" fill="white"/>
</clipPath>
</defs>
</svg>
