<svg width="95" height="41" viewBox="0 0 95 41" fill="none" xmlns="http://www.w3.org/2000/svg">
<g id="Layer_1" clip-path="url(#clip0_411_1621)">
<g id="Group">
<path id="Vector" d="M61.1218 11.9712V16.8474C61.1218 15.7712 62.3129 14.776 64.3345 13.9712C64.3345 13.9712 64.5955 13.8665 64.6999 13.8284C66.1283 13.2379 66.954 12.2474 66.954 10.5189V8.26172C63.3807 9.16172 61.1218 10.4903 61.1218 11.9712Z" fill="#F39800"/>
<path id="Vector_2" d="M74.9601 3.02381C74.9601 4.69524 73.6124 6.04762 71.9467 6.04762C70.2811 6.04762 68.9333 4.69524 68.9333 3.02381C68.9333 1.35238 70.2811 0 71.9467 0C73.6124 0 74.9601 1.35238 74.9601 3.02381Z" fill="#F39800"/>
<path id="Vector_3" d="M78.0588 7.05664C76.469 7.05664 74.3905 7.11855 72.9431 7.28521C70.5324 7.5614 68.9949 9.27569 68.9949 11.7709V28.0138C68.9949 28.99 70.3189 29.7852 71.9466 29.7852C73.5743 29.7852 74.8983 28.99 74.8983 28.0138V12.9995C74.8983 12.4471 75.3396 12.0566 75.8853 11.9852C76.5972 11.9566 77.3185 11.9376 78.0588 11.9376C87.4121 11.9376 95.0002 14.1376 95.0002 16.8566V11.9805C95.0002 9.26616 87.4169 7.0614 78.0588 7.0614V7.05664Z" fill="#F39800"/>
<path id="Vector_4" d="M87.7917 16.0004V18.2242C87.7917 19.4289 89.0018 20.6051 90.7862 20.0956C93.4104 19.2289 95.0002 18.0956 95.0002 16.8528V11.9766C95.0002 13.6432 92.1481 15.1099 87.7917 16.0004Z" fill="#00479D"/>
<path id="Vector_5" d="M85.8078 12.5531C85.8078 14.2245 84.4601 15.5769 82.7944 15.5769C81.1287 15.5769 79.781 14.2245 79.781 12.5531C79.781 10.8817 81.1287 9.5293 82.7944 9.5293C84.4601 9.5293 85.8078 10.8817 85.8078 12.5531Z" fill="#00479D"/>
<path id="Vector_6" d="M81.2332 16.804C81.2332 16.804 79.15 16.8898 78.0585 16.8898C68.7051 16.8898 61.1218 14.685 61.1218 11.9707V16.8469C61.1218 19.5659 68.7051 21.7659 78.0585 21.7659C78.3147 21.7659 78.8225 21.7612 78.8225 21.7612C79.3872 21.7612 79.8428 22.2183 79.8428 22.785V39.2278C79.8428 40.2088 81.1668 41.004 82.7945 41.004C84.4222 41.004 85.7462 40.2088 85.7462 39.2278V21.3421C85.7462 18.8374 83.7246 16.6136 81.2285 16.8088L81.2332 16.804Z" fill="#00479D"/>
</g>
<g id="Group_2">
<path id="Vector_7" d="M52.7608 14.4657C52.0774 14.4657 51.5269 15.0228 51.5269 15.7038V19.4943C50.8815 19.3562 49.9846 19.2847 49.1827 19.2847C44.7172 19.2847 42.4346 21.199 42.4346 25.5562V27.1419C42.4346 31.499 44.7172 33.4133 49.1827 33.4133C53.3539 33.4133 55.2901 31.5133 55.2901 27.7609V14.4609H52.7608V14.4657ZM51.5269 29.0228C51.5269 30.1228 50.9527 31.4276 49.0545 31.4276C47.1563 31.4276 46.2025 29.6181 46.2025 27.1752V25.5324C46.2025 23.0895 47.2512 21.4276 49.0545 21.4276C50.948 21.4276 51.5269 22.7371 51.5269 23.8324V29.0228Z" fill="#00479D"/>
<path id="Vector_8" d="M34.3529 19.5742H28.9621V20.3076C28.9621 20.9933 29.5173 21.5456 30.1959 21.5456H34.4906C36.0281 21.5456 37.1101 22.1409 37.1101 23.1218V29.7742C37.1101 30.7552 35.8525 31.3504 34.315 31.3504C32.7774 31.3504 31.7856 30.7552 31.7856 29.7742V27.5552C31.7856 26.5742 32.6019 25.9742 34.1394 25.9742H34.7136C35.397 25.9742 35.9474 25.4171 35.9474 24.7361V24.0171H34.277C30.1484 24.0171 28.0225 25.0552 28.0225 27.8742V28.898C28.0225 31.7171 30.1484 33.4647 34.277 33.4647H34.3577C38.4863 33.4647 40.878 31.7123 40.878 28.898V24.1456C40.878 21.3266 38.491 19.579 34.3577 19.579L34.3529 19.5742Z" fill="#00479D"/>
<path id="Vector_9" d="M13.3918 19.5759H11.1234C10.3025 19.5759 9.4198 19.8854 8.67476 20.614L3.76792 25.1949V14.7949H1.23383C0.550477 14.7949 0 15.3521 0 16.033V33.1759H2.52935C3.2127 33.1759 3.76317 32.6187 3.76317 31.9378V27.2521L9.25371 33.1759H14.0372L6.97587 25.5997L13.387 19.5806L13.3918 19.5759Z" fill="#00479D"/>
<path id="Vector_10" d="M20.3482 19.2754H20.2675C16.1389 19.2754 13.752 21.023 13.752 23.8421V28.5944C13.752 31.4135 16.3193 33.1611 20.4478 33.1611H24.4388C25.1222 33.1611 25.6631 32.5944 25.6631 31.9087V31.1897H20.1346C18.5971 31.1897 17.5151 30.5944 17.5151 29.6135V22.9611C17.5151 21.9802 18.7727 21.3849 20.3102 21.3849C21.8478 21.3849 22.8396 21.9802 22.8396 22.9611V25.2849C22.8396 26.2659 22.0233 26.8659 20.4858 26.8659H19.9116C19.2283 26.8659 18.6778 27.423 18.6778 28.104V28.823H20.3482C24.4768 28.823 26.6027 27.6087 26.6027 24.7897V23.8421C26.6027 21.023 24.4768 19.2754 20.3482 19.2754Z" fill="#00479D"/>
</g>
</g>
<defs>
<clipPath id="clip0_411_1621">
<rect width="95" height="41" fill="white"/>
</clipPath>
</defs>
</svg>
