<svg width="293" height="37" viewBox="0 0 293 37" fill="none" xmlns="http://www.w3.org/2000/svg">
<g clip-path="url(#clip0_411_1553)">
<path d="M74.3855 19.6855H73.0163V14.2148H70.4521V32.1454C70.4521 32.8549 71.031 33.4275 71.7342 33.4275C72.4375 33.4275 73.0163 32.8549 73.0163 32.1454V21.702H74.3855V32.1454C74.3855 32.8549 74.9581 33.4275 75.6676 33.4275C76.3771 33.4275 76.9497 32.8549 76.9497 32.1454V14.2148H74.3855V19.6855Z" fill="#00479D"/>
<path d="M109.55 25.9482C109.55 26.7386 110.191 27.3859 110.981 27.3859C111.772 27.3859 112.413 26.7386 112.413 25.9482V16.9861C112.413 16.0276 111.635 15.2559 110.683 15.2559H99.1064V17.2786H109.544V25.9544L109.55 25.9482Z" fill="#00479D"/>
<path d="M16.2379 31.231H6.90234V26.918H4.0332V31.5173C4.0332 32.4757 4.80494 33.2475 5.7634 33.2475H16.2317C16.7918 33.2475 17.2399 32.7932 17.2399 32.233C17.2399 31.6729 16.7856 31.2248 16.2317 31.2248L16.2379 31.231Z" fill="#00479D"/>
<path d="M18.4472 19.3386H16.7295V14.2227H13.8604V26.5581C13.8604 27.3485 14.5014 27.9957 15.2918 27.9957C16.0822 27.9957 16.7233 27.3547 16.7233 26.5581V21.3613H18.441C19.0011 21.3613 19.4492 20.9069 19.4492 20.353C19.4492 19.7991 19.0011 19.3386 18.441 19.3386H18.4472Z" fill="#00479D"/>
<path d="M58.0855 17.7997H56.374V14.2148H53.5049V23.0774C53.5049 23.8741 54.1459 24.5151 54.9363 24.5151C55.7267 24.5151 56.3678 23.8741 56.3678 23.0774V19.8162H58.0793C58.6394 19.8162 59.0876 19.3619 59.0876 18.8079C59.0876 18.254 58.6394 17.7997 58.0793 17.7997H58.0855Z" fill="#00479D"/>
<path d="M11.2151 20.9742C11.2151 20.3705 11.0409 19.8539 10.6426 19.3872C10.182 18.8457 9.13642 18.771 8.70076 19.2378C8.30244 19.6672 8.27132 20.0904 8.41447 20.7564C8.70076 22.0758 7.70496 23.5197 6.25484 23.5197C5.03499 23.5197 4.05164 22.3745 4.05164 20.9742C4.05164 19.6486 4.91051 18.4474 6.41043 18.4474H11.6757C12.2358 18.4474 12.6839 17.993 12.6839 17.4391C12.6839 16.8852 12.2296 16.4309 11.6757 16.4309H7.73608V13.9414H4.76114V16.4309H0V18.4536H2.20942C1.64306 19.1693 1.30698 20.0344 1.30698 20.9804C1.30698 23.4015 3.52262 25.3682 6.26106 25.3682C8.9995 25.3682 11.2151 23.4015 11.2151 20.9804V20.9742Z" fill="#00479D"/>
<path d="M94.5068 31.2375H85.3828V26.5137H82.5137V31.53C82.5137 32.4822 83.2854 33.2602 84.2439 33.2602H94.5068C95.0607 33.2602 95.515 32.8059 95.515 32.2519C95.515 31.698 95.0607 31.2375 94.5068 31.2375Z" fill="#00479D"/>
<path d="M113.925 28.7098H106.064V21.957H103.195V28.7098H96.9775V30.7325H113.925C114.485 30.7325 114.933 30.2781 114.933 29.7242C114.933 29.1703 114.479 28.716 113.925 28.716V28.7098Z" fill="#00479D"/>
<path d="M151.516 22.3822H149.245C149.904 21.4735 150.048 20.0483 150.048 18.7849V16.3825C150.048 15.4241 149.27 14.6523 148.311 14.6523H136.281V16.6751H147.172V19.5691C147.172 20.4528 147.129 21.5233 146.649 22.3884H143.706V18.7662H140.837V22.3884H133.791V24.4111H138.888C137.631 25.0895 136.617 26.8322 136.617 28.3072C136.617 29.7822 137.252 30.9585 138.534 31.9729C139.81 32.9874 141.347 33.4978 143.146 33.4978C144.944 33.4978 146.481 32.9874 147.77 31.9729C149.058 30.9585 149.699 29.776 149.699 28.3072C149.699 27.1496 149.239 26.2036 148.311 25.4132C147.72 24.9153 146.768 24.8592 146.201 25.3758C145.685 25.8488 145.741 26.7139 146.245 27.1558C146.948 27.7719 147.079 29.2905 145.679 30.4544C144.938 31.0643 144.098 31.3692 143.146 31.3692C142.193 31.3692 141.353 31.0643 140.625 30.4544C139.897 29.8444 139.536 29.11 139.536 28.2449C139.536 25.6185 142.43 24.4049 143.911 24.4049H151.516C152.077 24.4049 152.525 23.9506 152.525 23.3967C152.525 22.8428 152.077 22.3884 151.516 22.3884V22.3822Z" fill="#00479D"/>
<path d="M170.499 19.2063H168.787V14.2148H165.918V21.8513C165.128 22.1999 164.014 22.3804 162.981 22.3804H156.495V16.667H162.514C163.068 16.667 163.522 16.2189 163.522 15.6587C163.522 15.0986 163.068 14.6505 162.514 14.6505H153.62V22.6791C153.62 23.6376 154.398 24.4093 155.35 24.4093H162.744C163.858 24.4093 165.14 24.2164 165.912 23.8243V26.5689C165.912 27.3593 166.553 28.0066 167.35 28.0066C168.146 28.0066 168.781 27.3656 168.781 26.5689V21.2352H170.493C171.053 21.2352 171.507 20.7871 171.507 20.227C171.507 19.6668 171.053 19.2187 170.493 19.2187L170.499 19.2063Z" fill="#00479D"/>
<path d="M168.152 31.244H159.097V26.3086H156.228V31.5365C156.228 32.4887 157 33.2667 157.958 33.2667H168.146C168.706 33.2667 169.161 32.8124 169.161 32.2585C169.161 31.7046 168.706 31.2502 168.146 31.2502L168.152 31.244Z" fill="#00479D"/>
<path d="M93.6981 28.0004C94.4947 28.0004 95.1357 27.3593 95.1357 26.5627V14.2148H92.2666V26.5627C92.2666 27.3531 92.9076 28.0004 93.6981 28.0004Z" fill="#00479D"/>
<path d="M45.9306 20.801C46.6775 21.9835 48.1774 22.8673 49.4035 23.3901C50.642 23.9129 51.6627 23.9876 52.061 23.2967C52.3473 22.8051 52.0361 22.108 51.5693 21.9648C50.8598 21.7595 49.5653 21.0562 48.8807 20.3778C48.0031 19.5065 47.5177 17.8447 47.4181 16.6747H50.3184C50.8785 16.6747 51.3266 16.2266 51.3266 15.6664C51.3266 15.1063 50.8723 14.6582 50.3184 14.6582H40.7027V16.6809H44.4432C44.3436 17.8572 43.8519 19.5189 42.9744 20.384C42.0906 21.2553 40.7899 21.8777 39.3584 22.2636L40.6467 23.9315C42.8561 23.3963 44.8415 22.2138 45.9182 20.8072L45.9306 20.801Z" fill="#00479D"/>
<path d="M37.7407 21.2246H35.1952C35.8176 20.4964 36.0292 19.2579 36.0292 18.0816V16.3825C36.0292 15.4241 35.2575 14.6523 34.299 14.6523H22.337V16.6751H33.1601V19.0587C33.1601 19.9238 33.0356 20.7454 32.5315 21.2308H19.8538V23.2535H27.7703V25.8426H22.337V27.8653H32.9547V32.0041C32.9547 32.7945 33.5957 33.4355 34.3924 33.4355C35.189 33.4355 35.8238 32.7945 35.8238 32.0041V27.5728C35.8238 26.6143 35.0521 25.8426 34.0936 25.8426H30.6395V23.2535H37.7469C38.3009 23.2535 38.7552 22.8054 38.7552 22.2453C38.7552 21.6851 38.3009 21.237 37.7469 21.237L37.7407 21.2246Z" fill="#00479D"/>
<path d="M50.3496 24.4219C47.1817 24.4219 44.6113 26.5317 44.6113 29.1332C44.6113 31.7347 47.1817 33.8446 50.3496 33.8446C53.5175 33.8446 56.0941 31.7347 56.0941 29.1332C56.0941 26.5317 53.5237 24.4219 50.3496 24.4219ZM50.3496 31.8281C48.7937 31.8281 47.524 30.6145 47.524 29.127C47.524 27.6395 48.7937 26.4259 50.3496 26.4259C51.9055 26.4259 53.1752 27.6395 53.1752 29.127C53.1752 30.6145 51.9117 31.8281 50.3496 31.8281Z" fill="#00479D"/>
<path d="M132.459 23.0721H129.074V20.1532C129.758 19.4499 130.163 18.5973 130.163 17.6824C130.163 15.2801 127.424 13.332 124.039 13.332C120.653 13.332 117.921 15.2801 117.921 17.6824C117.921 18.6409 118.363 19.5184 119.097 20.2404V23.0784H114.74V25.1011H119.875C118.686 25.8977 117.778 27.2171 117.778 28.5739C117.778 29.9307 118.394 31.0945 119.626 32.0592C120.858 33.0176 122.346 33.5031 124.095 33.5031C125.844 33.5031 127.337 33.0177 128.582 32.0468C129.821 31.0758 130.443 29.9618 130.443 28.5739C130.443 27.5906 129.845 26.657 129.223 26.1404C128.57 25.5928 127.68 25.3625 127.07 25.9662C126.702 26.3334 126.478 26.8686 127.126 27.8022C127.648 28.5428 127.294 29.856 126.435 30.5593C125.763 31.1132 124.985 31.387 124.089 31.387C123.192 31.387 122.421 31.1132 121.761 30.5593C121.101 30.0054 120.771 29.3332 120.771 28.5366C120.771 26.4952 123.006 25.1011 125.078 25.1011H132.453C133.013 25.1011 133.461 24.6467 133.461 24.0928C133.461 23.5389 133.013 23.0846 132.453 23.0846L132.459 23.0721ZM124.039 15.2987C125.806 15.2987 127.231 16.363 127.231 17.6762C127.231 18.9894 125.806 20.0536 124.039 20.0536C122.271 20.0536 120.846 18.9894 120.846 17.6762C120.846 16.363 122.271 15.2987 124.039 15.2987ZM121.923 23.0721V21.7527C122.582 21.927 123.298 22.0266 124.039 22.0266C124.779 22.0266 125.564 21.9208 126.248 21.7278V23.0721H121.923Z" fill="#00479D"/>
<path d="M64.4341 14.4902C61.621 14.4902 59.3369 16.7806 59.3369 19.6061C59.3369 22.4317 61.621 24.722 64.4341 24.722C67.2473 24.722 69.5376 22.4317 69.5376 19.6061C69.5376 16.7806 67.2535 14.4902 64.4341 14.4902ZM64.4341 22.5686C63.1956 22.5686 62.1874 21.243 62.1874 19.6124C62.1874 17.9817 63.1956 16.6561 64.4341 16.6561C65.6727 16.6561 66.6809 17.9817 66.6809 19.6124C66.6809 21.243 65.6727 22.5686 64.4341 22.5686Z" fill="#00479D"/>
<path d="M89.7023 19.631C89.7023 16.793 87.2751 14.4902 84.2877 14.4902C81.3003 14.4902 78.873 16.793 78.873 19.631C78.873 22.469 81.2941 24.778 84.2877 24.778C87.2813 24.778 89.7023 22.4753 89.7023 19.631ZM81.7048 19.631C81.7048 17.9382 82.8624 16.5627 84.2877 16.5627C85.7129 16.5627 86.8705 17.9382 86.8705 19.631C86.8705 21.3239 85.7129 22.7055 84.2877 22.7055C82.8624 22.7055 81.7048 21.3301 81.7048 19.631Z" fill="#00479D"/>
<path d="M262.006 10.8038V15.204C262.006 14.2331 263.089 13.3369 264.912 12.6087C264.912 12.6087 265.149 12.5153 265.242 12.478C266.537 11.9427 267.284 11.0528 267.284 9.4906V7.44922C264.047 8.26453 262.006 9.45948 262.006 10.7976V10.8038Z" fill="#F39800"/>
<path d="M274.528 2.72599C274.528 4.23213 273.309 5.45198 271.802 5.45198C270.296 5.45198 269.076 4.23213 269.076 2.72599C269.076 1.21985 270.296 0 271.802 0C273.309 0 274.528 1.21985 274.528 2.72599Z" fill="#F39800"/>
<path d="M277.336 6.36719C275.898 6.36719 274.018 6.4232 272.705 6.57257C270.521 6.82152 269.133 8.37122 269.133 10.618V25.2748C269.133 26.1586 270.328 26.8743 271.809 26.8743C273.29 26.8743 274.479 26.1586 274.479 25.2748V11.7258C274.479 11.2279 274.877 10.8732 275.375 10.8109C276.022 10.786 276.676 10.7674 277.342 10.7674C285.812 10.7674 292.677 12.7527 292.677 15.2049V10.8047C292.677 8.35255 285.812 6.36719 277.342 6.36719H277.336Z" fill="#F39800"/>
<path d="M286.148 14.4335V16.4375C286.148 17.5267 287.244 18.5847 288.856 18.1241C291.233 17.34 292.671 16.3193 292.671 15.199V10.7988C292.671 12.2987 290.088 13.6244 286.148 14.4335Z" fill="#00479D"/>
<path d="M284.355 11.3276C284.355 12.8337 283.135 14.0535 281.629 14.0535C280.123 14.0535 278.903 12.8337 278.903 11.3276C278.903 9.82141 280.123 8.60156 281.629 8.60156C283.135 8.60156 284.355 9.82141 284.355 11.3276Z" fill="#00479D"/>
<path d="M280.211 15.1613C280.211 15.1613 278.325 15.2422 277.335 15.2422C268.865 15.2422 262 13.2568 262 10.8047V15.2049C262 17.657 268.865 19.6424 277.335 19.6424C277.572 19.6424 278.032 19.6424 278.032 19.6424C278.543 19.6424 278.953 20.0531 278.953 20.5635V35.4008C278.953 36.2846 280.148 37.0003 281.623 37.0003C283.098 37.0003 284.3 36.2846 284.3 35.4008V19.2627C284.3 17.0035 282.47 14.9932 280.211 15.1737V15.1613Z" fill="#00479D"/>
<path d="M191.658 17.0098V18.5215C191.649 20.5254 191.649 22.7754 191.008 26.168L188.758 25.9395C189.373 22.916 189.399 20.666 189.408 18.7852H179.986V17.0098H191.658ZM178.475 29.666V27.8379H183.695V22.3359H185.928V27.8379H193.064V29.666H178.475ZM208.621 23.1973V24.9902H194.031V23.1973H197.318V21.2812C196.149 20.7627 195.49 19.9717 195.49 18.9434C195.49 17.0098 197.767 15.8584 201.326 15.8496C204.859 15.8584 207.136 17.0098 207.145 18.9434C207.136 19.9893 206.459 20.7891 205.264 21.2988V23.1973H208.621ZM195.701 28.6992C195.701 26.8535 197.802 25.8252 201.309 25.834C204.763 25.8252 206.863 26.8535 206.881 28.6992C206.863 30.5889 204.763 31.5996 201.309 31.5996C197.802 31.5996 195.701 30.5889 195.701 28.6992ZM197.828 18.9434C197.811 19.8223 199.067 20.2705 201.326 20.2617C203.559 20.2705 204.824 19.8223 204.824 18.9434C204.824 18.0469 203.559 17.5723 201.326 17.5723C199.067 17.5723 197.811 18.0469 197.828 18.9434ZM197.986 28.6992C197.978 29.5166 199.094 29.9297 201.309 29.9297C203.479 29.9297 204.622 29.5166 204.631 28.6992C204.622 27.9082 203.479 27.5303 201.309 27.5215C199.094 27.5303 197.978 27.9082 197.986 28.6992ZM199.586 23.1973H203.031V21.8525C202.504 21.9229 201.933 21.9492 201.326 21.9492C200.702 21.9492 200.122 21.9141 199.586 21.8525V23.1973ZM223.387 15.6211V31.6172H221.225V23.4785H219.766V30.9141H217.674V16.043H219.766V21.6855H221.225V15.6211H223.387ZM209.395 26.7832C212.655 24.8672 214.062 22.5205 214.36 19.3828H210.203V17.5898H216.549C216.54 22.0547 215.204 25.7109 210.695 28.3301L209.395 26.7832ZM227.852 16.3418V18.2402H231.121V16.3418H233.371V23.3203H225.619V16.3418H227.852ZM227.219 26.0977V24.3574H237.836V28.6992H229.451V29.7363H238.293V31.5117H227.254V27.0996H235.604V26.0977H227.219ZM227.852 21.5625H231.121V19.9277H227.852V21.5625ZM235.586 23.7598V15.6211H237.836V18.7324H239.998V20.543H237.836V23.7598H235.586ZM254.254 15.6387V27.7148H252.004V26.4492H248.945V24.9199H252.004V15.6387H254.254ZM240.648 22.7227C243.575 22.7051 247.53 22.6611 250.914 22.248L251.037 23.8477C249.771 24.0586 248.462 24.208 247.17 24.3047V27.3457H244.92V29.543H254.605V31.3359H242.688V26.5547H244.92V24.4365C243.487 24.4893 242.125 24.498 240.912 24.498L240.648 22.7227ZM241.826 19.0488C241.826 17.3438 243.47 16.1748 245.852 16.1836C248.172 16.1748 249.833 17.3438 249.842 19.0488C249.833 20.7627 248.172 21.8701 245.852 21.8613C243.47 21.8701 241.826 20.7627 241.826 19.0488ZM243.953 19.0488C243.944 19.8223 244.709 20.2529 245.852 20.2441C246.924 20.2529 247.697 19.8223 247.715 19.0488C247.697 18.2578 246.924 17.8184 245.852 17.8184C244.709 17.8184 243.944 18.2578 243.953 19.0488Z" fill="#00479D"/>
</g>
<defs>
<clipPath id="clip0_411_1553">
<rect width="293" height="37" fill="white"/>
</clipPath>
</defs>
</svg>
