<svg width="218" height="54" viewBox="0 0 218 54" fill="none" xmlns="http://www.w3.org/2000/svg">
<g clip-path="url(#clip0_800_2187)">
<path d="M72.5947 30.3686H71.2621V24.9844H68.7588V42.6392C68.7588 43.3357 69.3231 43.8989 70.0134 43.8989C70.7038 43.8989 71.2681 43.3357 71.2681 42.6392V32.3552H72.6007V42.6392C72.6007 43.3357 73.159 43.8989 73.8554 43.8989C74.5517 43.8989 75.11 43.3357 75.11 42.6392V24.9844H72.6067V30.3686H72.5947Z" fill="#00479D"/>
<path d="M106.914 36.5325C106.914 37.3138 107.538 37.9437 108.313 37.9437C109.087 37.9437 109.711 37.3077 109.711 36.5325V27.7021C109.711 26.7573 108.955 25.9941 108.025 25.9941H96.7268V27.9807H106.914V36.5264V36.5325Z" fill="#00479D"/>
<path d="M15.8481 41.7359H6.7415V37.4902H3.94409V42.0205C3.94409 42.9653 4.69447 43.7285 5.63094 43.7285H15.8481C16.3944 43.7285 16.8326 43.2803 16.8326 42.7291C16.8326 42.178 16.3944 41.7359 15.8481 41.7359Z" fill="#00479D"/>
<path d="M18.003 30.0234H16.3282V24.9844H13.5308V37.1277C13.5308 37.909 14.1611 38.5389 14.9295 38.5389C15.6979 38.5389 16.3282 37.909 16.3282 37.1277V32.0099H18.003C18.5493 32.0099 18.9875 31.5678 18.9875 31.0167C18.9875 30.4655 18.5433 30.0174 18.003 30.0174V30.0234Z" fill="#00479D"/>
<path d="M56.6927 28.5151H55.0179V24.9902H52.2205V33.7177C52.2205 34.499 52.8448 35.1289 53.6192 35.1289C54.3936 35.1289 55.0179 34.499 55.0179 33.7177V30.5077H56.6927C57.239 30.5077 57.6772 30.0595 57.6772 29.5145C57.6772 28.9694 57.239 28.5212 56.6927 28.5212V28.5151Z" fill="#00479D"/>
<path d="M10.9495 31.6398C10.9495 31.0463 10.7754 30.5375 10.3912 30.0772C9.94102 29.5442 8.9205 29.4716 8.50029 29.9258C8.11009 30.3437 8.08008 30.7677 8.21815 31.4218C8.50029 32.7239 7.5218 34.1411 6.11108 34.1411C4.92248 34.1411 3.962 33.0146 3.962 31.6337C3.962 30.3255 4.79642 29.1445 6.26116 29.1445H11.3998C11.946 29.1445 12.3842 28.7024 12.3842 28.1512C12.3842 27.6001 11.94 27.158 11.3998 27.158H7.55781V24.7051H4.65835V27.158H0V29.1445H2.15509C1.60281 29.8471 1.27264 30.7071 1.27264 31.6337C1.27264 34.02 3.43974 35.9581 6.11108 35.9581C8.9145 35.9581 10.9495 34.02 10.9495 31.6337V31.6398Z" fill="#00479D"/>
<path d="M92.2306 41.7413H83.3221V37.0898H80.5247V42.032C80.5247 42.9707 81.281 43.7399 82.2115 43.7399H92.2246C92.7708 43.7399 93.2091 43.2917 93.2091 42.7466C93.2091 42.2016 92.7648 41.7473 92.2246 41.7473L92.2306 41.7413Z" fill="#00479D"/>
<path d="M111.188 39.2534H103.516V32.6094H100.719V39.2534H94.6497V41.246H111.194C111.74 41.246 112.179 40.7978 112.179 40.2527C112.179 39.7076 111.734 39.2594 111.194 39.2594L111.188 39.2534Z" fill="#00479D"/>
<path d="M147.879 33.0273H145.664C146.306 32.1309 146.444 30.7319 146.444 29.4782V27.1101C146.444 26.1713 145.682 25.4082 144.751 25.4082H133.009V27.3947H143.641V30.2474C143.641 31.1195 143.599 32.1733 143.13 33.0213H140.261V29.454H137.463V33.0213H130.584V35.0139H135.554C134.33 35.6801 133.339 37.4001 133.339 38.8537C133.339 40.3073 133.958 41.4641 135.206 42.4634C136.455 43.4627 137.95 43.9593 139.709 43.9593C141.467 43.9593 142.962 43.4567 144.217 42.4634C145.471 41.4641 146.102 40.3012 146.102 38.8537C146.102 37.7151 145.652 36.7824 144.751 36.0071C144.175 35.5165 143.244 35.462 142.692 35.9708C142.188 36.4371 142.242 37.2911 142.734 37.7211C143.418 38.3268 143.551 39.8227 142.176 40.9674C141.455 41.567 140.627 41.8698 139.703 41.8698C138.778 41.8698 137.956 41.567 137.241 40.9674C136.533 40.3678 136.179 39.641 136.179 38.7931C136.179 36.207 139.006 35.0078 140.447 35.0078H147.867C148.413 35.0078 148.851 34.5596 148.851 34.0085C148.851 33.4573 148.413 33.0152 147.867 33.0152L147.879 33.0273Z" fill="#00479D"/>
<path d="M166.398 29.9021H164.729V24.9902H161.932V32.5064C161.157 32.8455 160.071 33.0272 159.062 33.0272H152.735V27.4007H158.612C159.158 27.4007 159.597 26.9586 159.597 26.4075C159.597 25.8563 159.152 25.4142 158.612 25.4142H149.938V33.318C149.938 34.2567 150.694 35.0259 151.631 35.0259H158.846C159.933 35.0259 161.187 34.8321 161.938 34.4445V37.1457C161.938 37.927 162.562 38.5569 163.337 38.5569C164.111 38.5569 164.735 37.927 164.735 37.1457V31.8947H166.404C166.95 31.8947 167.395 31.4525 167.395 30.9014C167.395 30.3503 166.95 29.9081 166.404 29.9081L166.398 29.9021Z" fill="#00479D"/>
<path d="M164.111 41.748H155.274V36.8906H152.477V42.0326C152.477 42.9714 153.227 43.7406 154.164 43.7406H164.111C164.657 43.7406 165.095 43.2924 165.095 42.7473C165.095 42.2022 164.651 41.754 164.111 41.754V41.748Z" fill="#00479D"/>
<path d="M91.4441 38.5569C92.2185 38.5569 92.8428 37.927 92.8428 37.1457V24.9902H90.0454V37.1457C90.0454 37.927 90.6697 38.5569 91.4441 38.5569Z" fill="#00479D"/>
<path d="M44.8305 31.4706C45.5569 32.6334 47.0276 33.5056 48.2222 34.0143C49.4288 34.5291 50.4253 34.6018 50.8155 33.9235C51.0917 33.439 50.7915 32.7485 50.3353 32.6153C49.645 32.4094 48.3783 31.7189 47.712 31.0527C46.8595 30.1927 46.3853 28.5574 46.2893 27.4006H49.1227C49.669 27.4006 50.1072 26.9585 50.1072 26.4073C50.1072 25.8562 49.663 25.4141 49.1227 25.4141H39.74V27.4006H43.3898C43.2937 28.5574 42.8195 30.1927 41.9551 31.0527C41.0906 31.9067 39.824 32.5244 38.4253 32.906L39.6799 34.5534C41.835 34.0264 43.774 32.8636 44.8245 31.4766L44.8305 31.4706Z" fill="#00479D"/>
<path d="M36.8345 31.8826H34.3492C34.9555 31.1619 35.1597 29.9506 35.1597 28.7877V27.1101C35.1597 26.1713 34.4033 25.4082 33.4728 25.4082H21.7969V27.3947H32.3622V29.7386C32.3622 30.5865 32.2422 31.3981 31.7499 31.8766H19.3777V33.8692H27.1096V36.419H21.8029V38.4116H32.1641V42.4876C32.1641 43.2689 32.7945 43.8988 33.5688 43.8988C34.3432 43.8988 34.9676 43.2689 34.9676 42.4876V38.1269C34.9676 37.1881 34.2112 36.419 33.2807 36.419H29.913V33.8692H36.8465C37.3928 33.8692 37.831 33.421 37.831 32.8759C37.831 32.3308 37.3868 31.8826 36.8465 31.8826H36.8345Z" fill="#00479D"/>
<path d="M49.1408 35.0312C46.0492 35.0312 43.5339 37.1086 43.5339 39.6705C43.5339 42.2325 46.0432 44.3099 49.1408 44.3099C52.2383 44.3099 54.7476 42.2325 54.7476 39.6705C54.7476 37.1086 52.2383 35.0312 49.1408 35.0312ZM49.1408 42.3294C47.622 42.3294 46.3854 41.1362 46.3854 39.6705C46.3854 38.2049 47.622 37.0117 49.1408 37.0117C50.6595 37.0117 51.9022 38.2049 51.9022 39.6705C51.9022 41.1362 50.6655 42.3294 49.1408 42.3294Z" fill="#00479D"/>
<path d="M129.275 33.7051H125.968V30.8282C126.634 30.1378 127.03 29.2959 127.03 28.3874C127.03 26.0254 124.353 24.1055 121.057 24.1055C117.761 24.1055 115.084 26.0193 115.084 28.3874C115.084 29.3323 115.516 30.1983 116.237 30.9069V33.7051H111.987V35.6916H116.999C115.835 36.4729 114.946 37.7751 114.946 39.1135C114.946 40.452 115.546 41.5967 116.747 42.5476C117.948 43.4924 119.406 43.9709 121.111 43.9709C122.816 43.9709 124.281 43.4924 125.487 42.5355C126.694 41.5786 127.3 40.4823 127.3 39.1135C127.3 38.1445 126.712 37.2239 126.112 36.7152C125.475 36.1761 124.605 35.952 124.011 36.5456C123.65 36.909 123.434 37.4359 124.065 38.3504C124.575 39.0833 124.227 40.3733 123.392 41.0637C122.732 41.6088 121.976 41.8814 121.105 41.8814C120.235 41.8814 119.478 41.6088 118.836 41.0637C118.188 40.5187 117.87 39.8585 117.87 39.0711C117.87 37.0604 120.049 35.6855 122.072 35.6855H129.269C129.816 35.6855 130.254 35.2434 130.254 34.6923C130.254 34.1411 129.81 33.699 129.269 33.699L129.275 33.7051ZM121.057 26.0496C122.78 26.0496 124.173 27.0974 124.173 28.3874C124.173 29.6775 122.78 30.7313 121.057 30.7313C119.334 30.7313 117.942 29.6835 117.942 28.3874C117.942 27.0913 119.34 26.0496 121.057 26.0496ZM118.992 33.7051V32.4029C119.634 32.5725 120.331 32.6755 121.057 32.6755C121.784 32.6755 122.546 32.5664 123.212 32.3847V33.7111H118.992V33.7051Z" fill="#00479D"/>
<path d="M62.8876 25.2559C60.1383 25.2559 57.9111 27.5089 57.9111 30.2949C57.9111 33.0809 60.1383 35.3339 62.8876 35.3339C65.637 35.3339 67.8642 33.0748 67.8642 30.2949C67.8642 27.5149 65.637 25.2559 62.8876 25.2559ZM62.8876 33.2081C61.675 33.2081 60.6965 31.9059 60.6965 30.2949C60.6965 28.6839 61.681 27.3878 62.8876 27.3878C64.0943 27.3878 65.0848 28.6899 65.0848 30.2949C65.0848 31.8999 64.1003 33.2081 62.8876 33.2081Z" fill="#00479D"/>
<path d="M87.5482 30.3133C87.5482 27.5212 85.183 25.25 82.2656 25.25C79.3481 25.25 76.9829 27.5151 76.9829 30.3133C76.9829 33.1114 79.3481 35.3826 82.2656 35.3826C85.183 35.3826 87.5482 33.1174 87.5482 30.3133ZM79.7443 30.3133C79.7443 28.6477 80.8729 27.2911 82.2656 27.2911C83.6583 27.2911 84.7868 28.6417 84.7868 30.3133C84.7868 31.9849 83.6583 33.3415 82.2656 33.3415C80.8729 33.3415 79.7443 31.9909 79.7443 30.3133Z" fill="#00479D"/>
<path d="M173.626 15.7646V22.1845C173.626 20.7673 175.193 19.4591 177.834 18.3931C177.834 18.3931 178.176 18.2538 178.314 18.2054C180.181 17.4301 181.268 16.1219 181.268 13.8507V10.877C176.591 12.064 173.626 13.8144 173.626 15.7646Z" fill="#F39800"/>
<path d="M191.749 3.97914C191.749 6.17766 189.984 7.95828 187.805 7.95828C185.626 7.95828 183.861 6.17766 183.861 3.97914C183.861 1.78062 185.626 0 187.805 0C189.984 0 191.749 1.78062 191.749 3.97914Z" fill="#F39800"/>
<path d="M195.813 9.29102C193.73 9.29102 191.011 9.37581 189.108 9.59384C185.95 9.95118 183.939 12.2163 183.939 15.499V36.8906C183.939 38.1807 185.668 39.2284 187.805 39.2284C189.942 39.2284 191.671 38.1867 191.671 36.8906V17.11C191.671 16.3832 192.247 15.8684 192.968 15.7715C193.898 15.7352 194.846 15.7109 195.813 15.7109C208.065 15.7109 218 18.612 218 22.1914V15.7715C218 12.1981 208.065 9.29707 195.813 9.29707V9.29102Z" fill="#F39800"/>
<path d="M208.557 21.0708V24.0021C208.557 25.5889 210.142 27.1333 212.477 26.4671C215.911 25.3285 217.994 23.8325 217.994 22.1973V15.7773C217.994 17.9698 214.26 19.9079 208.557 21.0829V21.0708Z" fill="#00479D"/>
<path d="M205.964 16.5338C205.964 18.7323 204.199 20.513 202.02 20.513C199.841 20.513 198.076 18.7323 198.076 16.5338C198.076 14.3353 199.841 12.5547 202.02 12.5547C204.199 12.5547 205.964 14.3353 205.964 16.5338Z" fill="#00479D"/>
<path d="M199.967 22.131C199.967 22.131 197.236 22.2461 195.813 22.2461C183.561 22.2461 173.626 19.345 173.626 15.7656V22.1855C173.626 25.765 183.561 28.66 195.813 28.66C196.155 28.66 196.815 28.6539 196.815 28.6539C197.554 28.6539 198.148 29.2596 198.148 29.9985V51.6566C198.148 52.9466 199.883 53.9944 202.014 53.9944C204.145 53.9944 205.88 52.9466 205.88 51.6566V28.0967C205.88 24.802 203.233 21.8645 199.961 22.125L199.967 22.131Z" fill="#00479D"/>
</g>
<defs>
<clipPath id="clip0_800_2187">
<rect width="218" height="54" fill="white"/>
</clipPath>
</defs>
</svg>
